%TF.GenerationSoftware,KiCad,Pcbnew,7.0.9*%
%TF.CreationDate,2024-02-03T16:27:08+01:00*%
%TF.ProjectId,PC-Power-Control,50432d50-6f77-4657-922d-436f6e74726f,rev?*%
%TF.SameCoordinates,Original*%
%TF.FileFunction,Soldermask,Top*%
%TF.FilePolarity,Negative*%
%FSLAX46Y46*%
G04 Gerber Fmt 4.6, Leading zero omitted, Abs format (unit mm)*
G04 Created by KiCad (PCBNEW 7.0.9) date 2024-02-03 16:27:08*
%MOMM*%
%LPD*%
G01*
G04 APERTURE LIST*
G04 Aperture macros list*
%AMRoundRect*
0 Rectangle with rounded corners*
0 $1 Rounding radius*
0 $2 $3 $4 $5 $6 $7 $8 $9 X,Y pos of 4 corners*
0 Add a 4 corners polygon primitive as box body*
4,1,4,$2,$3,$4,$5,$6,$7,$8,$9,$2,$3,0*
0 Add four circle primitives for the rounded corners*
1,1,$1+$1,$2,$3*
1,1,$1+$1,$4,$5*
1,1,$1+$1,$6,$7*
1,1,$1+$1,$8,$9*
0 Add four rect primitives between the rounded corners*
20,1,$1+$1,$2,$3,$4,$5,0*
20,1,$1+$1,$4,$5,$6,$7,0*
20,1,$1+$1,$6,$7,$8,$9,0*
20,1,$1+$1,$8,$9,$2,$3,0*%
G04 Aperture macros list end*
%ADD10R,1.700000X1.700000*%
%ADD11O,1.700000X1.700000*%
%ADD12O,2.454000X1.804000*%
%ADD13RoundRect,0.250000X-0.450000X0.350000X-0.450000X-0.350000X0.450000X-0.350000X0.450000X0.350000X0*%
%ADD14RoundRect,0.250000X0.450000X-0.350000X0.450000X0.350000X-0.450000X0.350000X-0.450000X-0.350000X0*%
%ADD15RoundRect,0.250000X-0.600000X-0.750000X0.600000X-0.750000X0.600000X0.750000X-0.600000X0.750000X0*%
%ADD16O,1.700000X2.000000*%
%ADD17R,3.270000X1.960000*%
G04 APERTURE END LIST*
D10*
%TO.C,J2*%
X85725000Y-56896000D03*
D11*
X88265000Y-56896000D03*
X85725000Y-59436000D03*
X88265000Y-59436000D03*
X85725000Y-61976000D03*
X88265000Y-61976000D03*
X85725000Y-64516000D03*
X88265000Y-64516000D03*
X85725000Y-67056000D03*
X88265000Y-67056000D03*
X85725000Y-69596000D03*
X88265000Y-69596000D03*
%TD*%
D12*
%TO.C,U3*%
X81144000Y-69723000D03*
X81144000Y-67183000D03*
X72644000Y-67183000D03*
X72644000Y-69723000D03*
%TD*%
%TO.C,U2*%
X72644000Y-49530000D03*
X72644000Y-52070000D03*
X81144000Y-52070000D03*
X81144000Y-49530000D03*
%TD*%
%TO.C,U1*%
X72644000Y-60579000D03*
X72644000Y-63119000D03*
X81144000Y-63119000D03*
X81144000Y-60579000D03*
%TD*%
D13*
%TO.C,R3*%
X80772000Y-57277000D03*
X80772000Y-55277000D03*
%TD*%
%TO.C,R2*%
X73279000Y-55277000D03*
X73279000Y-57277000D03*
%TD*%
D14*
%TO.C,R1*%
X77089000Y-57277000D03*
X77089000Y-55277000D03*
%TD*%
D15*
%TO.C,J1*%
X87035000Y-50546000D03*
D16*
X89535000Y-50546000D03*
%TD*%
D17*
%TO.C,ESP32-C3_SuperMini1*%
X47864000Y-49530000D03*
X47864000Y-52070000D03*
X47864000Y-54610000D03*
X47864000Y-57150000D03*
X47864000Y-59690000D03*
X47864000Y-62230000D03*
X47864000Y-64770000D03*
X47864000Y-67310000D03*
X64404000Y-49530000D03*
X64404000Y-52070000D03*
X64404000Y-54610000D03*
X64404000Y-57150000D03*
X64404000Y-59690000D03*
X64404000Y-62230000D03*
X64404000Y-64770000D03*
X64404000Y-67310000D03*
%TD*%
M02*
