%TF.GenerationSoftware,KiCad,Pcbnew,7.0.9*%
%TF.CreationDate,2024-02-01T18:41:03+01:00*%
%TF.ProjectId,PC-Power-Control,50432d50-6f77-4657-922d-436f6e74726f,rev?*%
%TF.SameCoordinates,Original*%
%TF.FileFunction,Legend,Top*%
%TF.FilePolarity,Positive*%
%FSLAX46Y46*%
G04 Gerber Fmt 4.6, Leading zero omitted, Abs format (unit mm)*
G04 Created by KiCad (PCBNEW 7.0.9) date 2024-02-01 18:41:03*
%MOMM*%
%LPD*%
G01*
G04 APERTURE LIST*
%ADD10C,0.150000*%
%ADD11C,0.434210*%
%ADD12C,0.250000*%
%ADD13C,0.100000*%
%ADD14C,0.120000*%
%ADD15C,0.200000*%
%ADD16C,0.010000*%
G04 APERTURE END LIST*
D10*
X90170000Y-68326000D02*
X93853000Y-68326000D01*
X90170000Y-65786000D02*
X93853000Y-65786000D01*
D11*
X78830105Y-69977000D02*
G75*
G03*
X78830105Y-69977000I-217105J0D01*
G01*
X75782105Y-60198000D02*
G75*
G03*
X75782105Y-60198000I-217105J0D01*
G01*
D10*
X90170000Y-60706000D02*
X93853000Y-60706000D01*
X90170000Y-63246000D02*
X93853000Y-63246000D01*
X90170000Y-58166000D02*
X93853000Y-58166000D01*
X90170000Y-55566000D02*
X93853000Y-55566000D01*
X93853000Y-70926000D01*
X90170000Y-70926000D01*
X90170000Y-55566000D01*
D11*
X75633315Y-49022000D02*
G75*
G03*
X75633315Y-49022000I-217105J0D01*
G01*
D10*
X90435350Y-67343533D02*
X90435350Y-66643533D01*
X90435350Y-66643533D02*
X90702017Y-66643533D01*
X90702017Y-66643533D02*
X90768684Y-66676866D01*
X90768684Y-66676866D02*
X90802017Y-66710200D01*
X90802017Y-66710200D02*
X90835350Y-66776866D01*
X90835350Y-66776866D02*
X90835350Y-66876866D01*
X90835350Y-66876866D02*
X90802017Y-66943533D01*
X90802017Y-66943533D02*
X90768684Y-66976866D01*
X90768684Y-66976866D02*
X90702017Y-67010200D01*
X90702017Y-67010200D02*
X90435350Y-67010200D01*
X91468684Y-67343533D02*
X91135350Y-67343533D01*
X91135350Y-67343533D02*
X91135350Y-66643533D01*
X91702017Y-66976866D02*
X91935351Y-66976866D01*
X92035351Y-67343533D02*
X91702017Y-67343533D01*
X91702017Y-67343533D02*
X91702017Y-66643533D01*
X91702017Y-66643533D02*
X92035351Y-66643533D01*
X92335350Y-67343533D02*
X92335350Y-66643533D01*
X92335350Y-66643533D02*
X92502017Y-66643533D01*
X92502017Y-66643533D02*
X92602017Y-66676866D01*
X92602017Y-66676866D02*
X92668684Y-66743533D01*
X92668684Y-66743533D02*
X92702017Y-66810200D01*
X92702017Y-66810200D02*
X92735350Y-66943533D01*
X92735350Y-66943533D02*
X92735350Y-67043533D01*
X92735350Y-67043533D02*
X92702017Y-67176866D01*
X92702017Y-67176866D02*
X92668684Y-67243533D01*
X92668684Y-67243533D02*
X92602017Y-67310200D01*
X92602017Y-67310200D02*
X92502017Y-67343533D01*
X92502017Y-67343533D02*
X92335350Y-67343533D01*
X93035350Y-67076866D02*
X93568684Y-67076866D01*
X93302017Y-67343533D02*
X93302017Y-66810200D01*
D12*
X83701285Y-55441092D02*
X83748904Y-55345853D01*
X83748904Y-55345853D02*
X83748904Y-55155377D01*
X83748904Y-55155377D02*
X83701285Y-55060139D01*
X83701285Y-55060139D02*
X83606047Y-54964901D01*
X83606047Y-54964901D02*
X83510809Y-54917282D01*
X83510809Y-54917282D02*
X83320333Y-54917282D01*
X83320333Y-54917282D02*
X83225095Y-54964901D01*
X83225095Y-54964901D02*
X83129857Y-55060139D01*
X83129857Y-55060139D02*
X83082238Y-55155377D01*
X83082238Y-55155377D02*
X83082238Y-55345853D01*
X83082238Y-55345853D02*
X83129857Y-55441092D01*
X84082238Y-55250615D02*
X84034619Y-55012520D01*
X84034619Y-55012520D02*
X83891761Y-54774425D01*
X83891761Y-54774425D02*
X83653666Y-54631568D01*
X83653666Y-54631568D02*
X83415571Y-54583949D01*
X83415571Y-54583949D02*
X83177476Y-54631568D01*
X83177476Y-54631568D02*
X82939380Y-54774425D01*
X82939380Y-54774425D02*
X82796523Y-55012520D01*
X82796523Y-55012520D02*
X82748904Y-55250615D01*
X82748904Y-55250615D02*
X82796523Y-55488711D01*
X82796523Y-55488711D02*
X82939380Y-55726806D01*
X82939380Y-55726806D02*
X83177476Y-55869663D01*
X83177476Y-55869663D02*
X83415571Y-55917282D01*
X83415571Y-55917282D02*
X83653666Y-55869663D01*
X83653666Y-55869663D02*
X83891761Y-55726806D01*
X83891761Y-55726806D02*
X84034619Y-55488711D01*
X84034619Y-55488711D02*
X84082238Y-55250615D01*
X83844142Y-56298235D02*
X83891761Y-56345854D01*
X83891761Y-56345854D02*
X83939380Y-56441092D01*
X83939380Y-56441092D02*
X83939380Y-56679187D01*
X83939380Y-56679187D02*
X83891761Y-56774425D01*
X83891761Y-56774425D02*
X83844142Y-56822044D01*
X83844142Y-56822044D02*
X83748904Y-56869663D01*
X83748904Y-56869663D02*
X83653666Y-56869663D01*
X83653666Y-56869663D02*
X83510809Y-56822044D01*
X83510809Y-56822044D02*
X82939380Y-56250616D01*
X82939380Y-56250616D02*
X82939380Y-56869663D01*
X83939380Y-57488711D02*
X83939380Y-57583949D01*
X83939380Y-57583949D02*
X83891761Y-57679187D01*
X83891761Y-57679187D02*
X83844142Y-57726806D01*
X83844142Y-57726806D02*
X83748904Y-57774425D01*
X83748904Y-57774425D02*
X83558428Y-57822044D01*
X83558428Y-57822044D02*
X83320333Y-57822044D01*
X83320333Y-57822044D02*
X83129857Y-57774425D01*
X83129857Y-57774425D02*
X83034619Y-57726806D01*
X83034619Y-57726806D02*
X82987000Y-57679187D01*
X82987000Y-57679187D02*
X82939380Y-57583949D01*
X82939380Y-57583949D02*
X82939380Y-57488711D01*
X82939380Y-57488711D02*
X82987000Y-57393473D01*
X82987000Y-57393473D02*
X83034619Y-57345854D01*
X83034619Y-57345854D02*
X83129857Y-57298235D01*
X83129857Y-57298235D02*
X83320333Y-57250616D01*
X83320333Y-57250616D02*
X83558428Y-57250616D01*
X83558428Y-57250616D02*
X83748904Y-57298235D01*
X83748904Y-57298235D02*
X83844142Y-57345854D01*
X83844142Y-57345854D02*
X83891761Y-57393473D01*
X83891761Y-57393473D02*
X83939380Y-57488711D01*
X83844142Y-58202997D02*
X83891761Y-58250616D01*
X83891761Y-58250616D02*
X83939380Y-58345854D01*
X83939380Y-58345854D02*
X83939380Y-58583949D01*
X83939380Y-58583949D02*
X83891761Y-58679187D01*
X83891761Y-58679187D02*
X83844142Y-58726806D01*
X83844142Y-58726806D02*
X83748904Y-58774425D01*
X83748904Y-58774425D02*
X83653666Y-58774425D01*
X83653666Y-58774425D02*
X83510809Y-58726806D01*
X83510809Y-58726806D02*
X82939380Y-58155378D01*
X82939380Y-58155378D02*
X82939380Y-58774425D01*
X83606047Y-59631568D02*
X82939380Y-59631568D01*
X83987000Y-59393473D02*
X83272714Y-59155378D01*
X83272714Y-59155378D02*
X83272714Y-59774425D01*
X83939380Y-60774426D02*
X83939380Y-61345854D01*
X82939380Y-61060140D02*
X83939380Y-61060140D01*
X83463190Y-61679188D02*
X83463190Y-62012521D01*
X82939380Y-62155378D02*
X82939380Y-61679188D01*
X82939380Y-61679188D02*
X83939380Y-61679188D01*
X83939380Y-61679188D02*
X83939380Y-62155378D01*
X82987000Y-62536331D02*
X82939380Y-62679188D01*
X82939380Y-62679188D02*
X82939380Y-62917283D01*
X82939380Y-62917283D02*
X82987000Y-63012521D01*
X82987000Y-63012521D02*
X83034619Y-63060140D01*
X83034619Y-63060140D02*
X83129857Y-63107759D01*
X83129857Y-63107759D02*
X83225095Y-63107759D01*
X83225095Y-63107759D02*
X83320333Y-63060140D01*
X83320333Y-63060140D02*
X83367952Y-63012521D01*
X83367952Y-63012521D02*
X83415571Y-62917283D01*
X83415571Y-62917283D02*
X83463190Y-62726807D01*
X83463190Y-62726807D02*
X83510809Y-62631569D01*
X83510809Y-62631569D02*
X83558428Y-62583950D01*
X83558428Y-62583950D02*
X83653666Y-62536331D01*
X83653666Y-62536331D02*
X83748904Y-62536331D01*
X83748904Y-62536331D02*
X83844142Y-62583950D01*
X83844142Y-62583950D02*
X83891761Y-62631569D01*
X83891761Y-62631569D02*
X83939380Y-62726807D01*
X83939380Y-62726807D02*
X83939380Y-62964902D01*
X83939380Y-62964902D02*
X83891761Y-63107759D01*
X82939380Y-63536331D02*
X83939380Y-63536331D01*
X82939380Y-64012521D02*
X83939380Y-64012521D01*
X82939380Y-64583949D02*
X83510809Y-64155378D01*
X83939380Y-64583949D02*
X83367952Y-64012521D01*
D10*
X90835350Y-62263533D02*
X90602017Y-61930200D01*
X90435350Y-62263533D02*
X90435350Y-61563533D01*
X90435350Y-61563533D02*
X90702017Y-61563533D01*
X90702017Y-61563533D02*
X90768684Y-61596866D01*
X90768684Y-61596866D02*
X90802017Y-61630200D01*
X90802017Y-61630200D02*
X90835350Y-61696866D01*
X90835350Y-61696866D02*
X90835350Y-61796866D01*
X90835350Y-61796866D02*
X90802017Y-61863533D01*
X90802017Y-61863533D02*
X90768684Y-61896866D01*
X90768684Y-61896866D02*
X90702017Y-61930200D01*
X90702017Y-61930200D02*
X90435350Y-61930200D01*
X91102017Y-62230200D02*
X91202017Y-62263533D01*
X91202017Y-62263533D02*
X91368684Y-62263533D01*
X91368684Y-62263533D02*
X91435350Y-62230200D01*
X91435350Y-62230200D02*
X91468684Y-62196866D01*
X91468684Y-62196866D02*
X91502017Y-62130200D01*
X91502017Y-62130200D02*
X91502017Y-62063533D01*
X91502017Y-62063533D02*
X91468684Y-61996866D01*
X91468684Y-61996866D02*
X91435350Y-61963533D01*
X91435350Y-61963533D02*
X91368684Y-61930200D01*
X91368684Y-61930200D02*
X91235350Y-61896866D01*
X91235350Y-61896866D02*
X91168684Y-61863533D01*
X91168684Y-61863533D02*
X91135350Y-61830200D01*
X91135350Y-61830200D02*
X91102017Y-61763533D01*
X91102017Y-61763533D02*
X91102017Y-61696866D01*
X91102017Y-61696866D02*
X91135350Y-61630200D01*
X91135350Y-61630200D02*
X91168684Y-61596866D01*
X91168684Y-61596866D02*
X91235350Y-61563533D01*
X91235350Y-61563533D02*
X91402017Y-61563533D01*
X91402017Y-61563533D02*
X91502017Y-61596866D01*
X91702017Y-61563533D02*
X92102017Y-61563533D01*
X91902017Y-62263533D02*
X91902017Y-61563533D01*
X92335350Y-61996866D02*
X92868684Y-61996866D01*
X92602017Y-62263533D02*
X92602017Y-61730200D01*
X90435350Y-69883533D02*
X90435350Y-69183533D01*
X90435350Y-69183533D02*
X90702017Y-69183533D01*
X90702017Y-69183533D02*
X90768684Y-69216866D01*
X90768684Y-69216866D02*
X90802017Y-69250200D01*
X90802017Y-69250200D02*
X90835350Y-69316866D01*
X90835350Y-69316866D02*
X90835350Y-69416866D01*
X90835350Y-69416866D02*
X90802017Y-69483533D01*
X90802017Y-69483533D02*
X90768684Y-69516866D01*
X90768684Y-69516866D02*
X90702017Y-69550200D01*
X90702017Y-69550200D02*
X90435350Y-69550200D01*
X91468684Y-69883533D02*
X91135350Y-69883533D01*
X91135350Y-69883533D02*
X91135350Y-69183533D01*
X91702017Y-69516866D02*
X91935351Y-69516866D01*
X92035351Y-69883533D02*
X91702017Y-69883533D01*
X91702017Y-69883533D02*
X91702017Y-69183533D01*
X91702017Y-69183533D02*
X92035351Y-69183533D01*
X92335350Y-69883533D02*
X92335350Y-69183533D01*
X92335350Y-69183533D02*
X92502017Y-69183533D01*
X92502017Y-69183533D02*
X92602017Y-69216866D01*
X92602017Y-69216866D02*
X92668684Y-69283533D01*
X92668684Y-69283533D02*
X92702017Y-69350200D01*
X92702017Y-69350200D02*
X92735350Y-69483533D01*
X92735350Y-69483533D02*
X92735350Y-69583533D01*
X92735350Y-69583533D02*
X92702017Y-69716866D01*
X92702017Y-69716866D02*
X92668684Y-69783533D01*
X92668684Y-69783533D02*
X92602017Y-69850200D01*
X92602017Y-69850200D02*
X92502017Y-69883533D01*
X92502017Y-69883533D02*
X92335350Y-69883533D01*
X93035350Y-69616866D02*
X93568684Y-69616866D01*
X90435350Y-57183533D02*
X90435350Y-56483533D01*
X90435350Y-56483533D02*
X90702017Y-56483533D01*
X90702017Y-56483533D02*
X90768684Y-56516866D01*
X90768684Y-56516866D02*
X90802017Y-56550200D01*
X90802017Y-56550200D02*
X90835350Y-56616866D01*
X90835350Y-56616866D02*
X90835350Y-56716866D01*
X90835350Y-56716866D02*
X90802017Y-56783533D01*
X90802017Y-56783533D02*
X90768684Y-56816866D01*
X90768684Y-56816866D02*
X90702017Y-56850200D01*
X90702017Y-56850200D02*
X90435350Y-56850200D01*
X91068684Y-56483533D02*
X91235350Y-57183533D01*
X91235350Y-57183533D02*
X91368684Y-56683533D01*
X91368684Y-56683533D02*
X91502017Y-57183533D01*
X91502017Y-57183533D02*
X91668684Y-56483533D01*
X92335350Y-57183533D02*
X92102017Y-56850200D01*
X91935350Y-57183533D02*
X91935350Y-56483533D01*
X91935350Y-56483533D02*
X92202017Y-56483533D01*
X92202017Y-56483533D02*
X92268684Y-56516866D01*
X92268684Y-56516866D02*
X92302017Y-56550200D01*
X92302017Y-56550200D02*
X92335350Y-56616866D01*
X92335350Y-56616866D02*
X92335350Y-56716866D01*
X92335350Y-56716866D02*
X92302017Y-56783533D01*
X92302017Y-56783533D02*
X92268684Y-56816866D01*
X92268684Y-56816866D02*
X92202017Y-56850200D01*
X92202017Y-56850200D02*
X91935350Y-56850200D01*
X92635350Y-56916866D02*
X93168684Y-56916866D01*
X92902017Y-57183533D02*
X92902017Y-56650200D01*
X90435350Y-59723533D02*
X90435350Y-59023533D01*
X90435350Y-59023533D02*
X90702017Y-59023533D01*
X90702017Y-59023533D02*
X90768684Y-59056866D01*
X90768684Y-59056866D02*
X90802017Y-59090200D01*
X90802017Y-59090200D02*
X90835350Y-59156866D01*
X90835350Y-59156866D02*
X90835350Y-59256866D01*
X90835350Y-59256866D02*
X90802017Y-59323533D01*
X90802017Y-59323533D02*
X90768684Y-59356866D01*
X90768684Y-59356866D02*
X90702017Y-59390200D01*
X90702017Y-59390200D02*
X90435350Y-59390200D01*
X91068684Y-59023533D02*
X91235350Y-59723533D01*
X91235350Y-59723533D02*
X91368684Y-59223533D01*
X91368684Y-59223533D02*
X91502017Y-59723533D01*
X91502017Y-59723533D02*
X91668684Y-59023533D01*
X92335350Y-59723533D02*
X92102017Y-59390200D01*
X91935350Y-59723533D02*
X91935350Y-59023533D01*
X91935350Y-59023533D02*
X92202017Y-59023533D01*
X92202017Y-59023533D02*
X92268684Y-59056866D01*
X92268684Y-59056866D02*
X92302017Y-59090200D01*
X92302017Y-59090200D02*
X92335350Y-59156866D01*
X92335350Y-59156866D02*
X92335350Y-59256866D01*
X92335350Y-59256866D02*
X92302017Y-59323533D01*
X92302017Y-59323533D02*
X92268684Y-59356866D01*
X92268684Y-59356866D02*
X92202017Y-59390200D01*
X92202017Y-59390200D02*
X91935350Y-59390200D01*
X92635350Y-59456866D02*
X93168684Y-59456866D01*
X90835350Y-64803533D02*
X90602017Y-64470200D01*
X90435350Y-64803533D02*
X90435350Y-64103533D01*
X90435350Y-64103533D02*
X90702017Y-64103533D01*
X90702017Y-64103533D02*
X90768684Y-64136866D01*
X90768684Y-64136866D02*
X90802017Y-64170200D01*
X90802017Y-64170200D02*
X90835350Y-64236866D01*
X90835350Y-64236866D02*
X90835350Y-64336866D01*
X90835350Y-64336866D02*
X90802017Y-64403533D01*
X90802017Y-64403533D02*
X90768684Y-64436866D01*
X90768684Y-64436866D02*
X90702017Y-64470200D01*
X90702017Y-64470200D02*
X90435350Y-64470200D01*
X91102017Y-64770200D02*
X91202017Y-64803533D01*
X91202017Y-64803533D02*
X91368684Y-64803533D01*
X91368684Y-64803533D02*
X91435350Y-64770200D01*
X91435350Y-64770200D02*
X91468684Y-64736866D01*
X91468684Y-64736866D02*
X91502017Y-64670200D01*
X91502017Y-64670200D02*
X91502017Y-64603533D01*
X91502017Y-64603533D02*
X91468684Y-64536866D01*
X91468684Y-64536866D02*
X91435350Y-64503533D01*
X91435350Y-64503533D02*
X91368684Y-64470200D01*
X91368684Y-64470200D02*
X91235350Y-64436866D01*
X91235350Y-64436866D02*
X91168684Y-64403533D01*
X91168684Y-64403533D02*
X91135350Y-64370200D01*
X91135350Y-64370200D02*
X91102017Y-64303533D01*
X91102017Y-64303533D02*
X91102017Y-64236866D01*
X91102017Y-64236866D02*
X91135350Y-64170200D01*
X91135350Y-64170200D02*
X91168684Y-64136866D01*
X91168684Y-64136866D02*
X91235350Y-64103533D01*
X91235350Y-64103533D02*
X91402017Y-64103533D01*
X91402017Y-64103533D02*
X91502017Y-64136866D01*
X91702017Y-64103533D02*
X92102017Y-64103533D01*
X91902017Y-64803533D02*
X91902017Y-64103533D01*
X92335350Y-64536866D02*
X92868684Y-64536866D01*
D12*
X70239380Y-50440568D02*
X71239380Y-50440568D01*
X71239380Y-50440568D02*
X71239380Y-50821520D01*
X71239380Y-50821520D02*
X71191761Y-50916758D01*
X71191761Y-50916758D02*
X71144142Y-50964377D01*
X71144142Y-50964377D02*
X71048904Y-51011996D01*
X71048904Y-51011996D02*
X70906047Y-51011996D01*
X70906047Y-51011996D02*
X70810809Y-50964377D01*
X70810809Y-50964377D02*
X70763190Y-50916758D01*
X70763190Y-50916758D02*
X70715571Y-50821520D01*
X70715571Y-50821520D02*
X70715571Y-50440568D01*
X70334619Y-52011996D02*
X70287000Y-51964377D01*
X70287000Y-51964377D02*
X70239380Y-51821520D01*
X70239380Y-51821520D02*
X70239380Y-51726282D01*
X70239380Y-51726282D02*
X70287000Y-51583425D01*
X70287000Y-51583425D02*
X70382238Y-51488187D01*
X70382238Y-51488187D02*
X70477476Y-51440568D01*
X70477476Y-51440568D02*
X70667952Y-51392949D01*
X70667952Y-51392949D02*
X70810809Y-51392949D01*
X70810809Y-51392949D02*
X71001285Y-51440568D01*
X71001285Y-51440568D02*
X71096523Y-51488187D01*
X71096523Y-51488187D02*
X71191761Y-51583425D01*
X71191761Y-51583425D02*
X71239380Y-51726282D01*
X71239380Y-51726282D02*
X71239380Y-51821520D01*
X71239380Y-51821520D02*
X71191761Y-51964377D01*
X71191761Y-51964377D02*
X71144142Y-52011996D01*
X70239380Y-53202473D02*
X71239380Y-53202473D01*
X71239380Y-53202473D02*
X71239380Y-53583425D01*
X71239380Y-53583425D02*
X71191761Y-53678663D01*
X71191761Y-53678663D02*
X71144142Y-53726282D01*
X71144142Y-53726282D02*
X71048904Y-53773901D01*
X71048904Y-53773901D02*
X70906047Y-53773901D01*
X70906047Y-53773901D02*
X70810809Y-53726282D01*
X70810809Y-53726282D02*
X70763190Y-53678663D01*
X70763190Y-53678663D02*
X70715571Y-53583425D01*
X70715571Y-53583425D02*
X70715571Y-53202473D01*
X71239380Y-54392949D02*
X71239380Y-54583425D01*
X71239380Y-54583425D02*
X71191761Y-54678663D01*
X71191761Y-54678663D02*
X71096523Y-54773901D01*
X71096523Y-54773901D02*
X70906047Y-54821520D01*
X70906047Y-54821520D02*
X70572714Y-54821520D01*
X70572714Y-54821520D02*
X70382238Y-54773901D01*
X70382238Y-54773901D02*
X70287000Y-54678663D01*
X70287000Y-54678663D02*
X70239380Y-54583425D01*
X70239380Y-54583425D02*
X70239380Y-54392949D01*
X70239380Y-54392949D02*
X70287000Y-54297711D01*
X70287000Y-54297711D02*
X70382238Y-54202473D01*
X70382238Y-54202473D02*
X70572714Y-54154854D01*
X70572714Y-54154854D02*
X70906047Y-54154854D01*
X70906047Y-54154854D02*
X71096523Y-54202473D01*
X71096523Y-54202473D02*
X71191761Y-54297711D01*
X71191761Y-54297711D02*
X71239380Y-54392949D01*
X71239380Y-55154854D02*
X70239380Y-55392949D01*
X70239380Y-55392949D02*
X70953666Y-55583425D01*
X70953666Y-55583425D02*
X70239380Y-55773901D01*
X70239380Y-55773901D02*
X71239380Y-56011997D01*
X70763190Y-56392949D02*
X70763190Y-56726282D01*
X70239380Y-56869139D02*
X70239380Y-56392949D01*
X70239380Y-56392949D02*
X71239380Y-56392949D01*
X71239380Y-56392949D02*
X71239380Y-56869139D01*
X70239380Y-57869139D02*
X70715571Y-57535806D01*
X70239380Y-57297711D02*
X71239380Y-57297711D01*
X71239380Y-57297711D02*
X71239380Y-57678663D01*
X71239380Y-57678663D02*
X71191761Y-57773901D01*
X71191761Y-57773901D02*
X71144142Y-57821520D01*
X71144142Y-57821520D02*
X71048904Y-57869139D01*
X71048904Y-57869139D02*
X70906047Y-57869139D01*
X70906047Y-57869139D02*
X70810809Y-57821520D01*
X70810809Y-57821520D02*
X70763190Y-57773901D01*
X70763190Y-57773901D02*
X70715571Y-57678663D01*
X70715571Y-57678663D02*
X70715571Y-57297711D01*
X70334619Y-59631044D02*
X70287000Y-59583425D01*
X70287000Y-59583425D02*
X70239380Y-59440568D01*
X70239380Y-59440568D02*
X70239380Y-59345330D01*
X70239380Y-59345330D02*
X70287000Y-59202473D01*
X70287000Y-59202473D02*
X70382238Y-59107235D01*
X70382238Y-59107235D02*
X70477476Y-59059616D01*
X70477476Y-59059616D02*
X70667952Y-59011997D01*
X70667952Y-59011997D02*
X70810809Y-59011997D01*
X70810809Y-59011997D02*
X71001285Y-59059616D01*
X71001285Y-59059616D02*
X71096523Y-59107235D01*
X71096523Y-59107235D02*
X71191761Y-59202473D01*
X71191761Y-59202473D02*
X71239380Y-59345330D01*
X71239380Y-59345330D02*
X71239380Y-59440568D01*
X71239380Y-59440568D02*
X71191761Y-59583425D01*
X71191761Y-59583425D02*
X71144142Y-59631044D01*
X71239380Y-60250092D02*
X71239380Y-60440568D01*
X71239380Y-60440568D02*
X71191761Y-60535806D01*
X71191761Y-60535806D02*
X71096523Y-60631044D01*
X71096523Y-60631044D02*
X70906047Y-60678663D01*
X70906047Y-60678663D02*
X70572714Y-60678663D01*
X70572714Y-60678663D02*
X70382238Y-60631044D01*
X70382238Y-60631044D02*
X70287000Y-60535806D01*
X70287000Y-60535806D02*
X70239380Y-60440568D01*
X70239380Y-60440568D02*
X70239380Y-60250092D01*
X70239380Y-60250092D02*
X70287000Y-60154854D01*
X70287000Y-60154854D02*
X70382238Y-60059616D01*
X70382238Y-60059616D02*
X70572714Y-60011997D01*
X70572714Y-60011997D02*
X70906047Y-60011997D01*
X70906047Y-60011997D02*
X71096523Y-60059616D01*
X71096523Y-60059616D02*
X71191761Y-60154854D01*
X71191761Y-60154854D02*
X71239380Y-60250092D01*
X70239380Y-61107235D02*
X71239380Y-61107235D01*
X71239380Y-61107235D02*
X70239380Y-61678663D01*
X70239380Y-61678663D02*
X71239380Y-61678663D01*
X71239380Y-62011997D02*
X71239380Y-62583425D01*
X70239380Y-62297711D02*
X71239380Y-62297711D01*
X70239380Y-63488187D02*
X70715571Y-63154854D01*
X70239380Y-62916759D02*
X71239380Y-62916759D01*
X71239380Y-62916759D02*
X71239380Y-63297711D01*
X71239380Y-63297711D02*
X71191761Y-63392949D01*
X71191761Y-63392949D02*
X71144142Y-63440568D01*
X71144142Y-63440568D02*
X71048904Y-63488187D01*
X71048904Y-63488187D02*
X70906047Y-63488187D01*
X70906047Y-63488187D02*
X70810809Y-63440568D01*
X70810809Y-63440568D02*
X70763190Y-63392949D01*
X70763190Y-63392949D02*
X70715571Y-63297711D01*
X70715571Y-63297711D02*
X70715571Y-62916759D01*
X71239380Y-64107235D02*
X71239380Y-64297711D01*
X71239380Y-64297711D02*
X71191761Y-64392949D01*
X71191761Y-64392949D02*
X71096523Y-64488187D01*
X71096523Y-64488187D02*
X70906047Y-64535806D01*
X70906047Y-64535806D02*
X70572714Y-64535806D01*
X70572714Y-64535806D02*
X70382238Y-64488187D01*
X70382238Y-64488187D02*
X70287000Y-64392949D01*
X70287000Y-64392949D02*
X70239380Y-64297711D01*
X70239380Y-64297711D02*
X70239380Y-64107235D01*
X70239380Y-64107235D02*
X70287000Y-64011997D01*
X70287000Y-64011997D02*
X70382238Y-63916759D01*
X70382238Y-63916759D02*
X70572714Y-63869140D01*
X70572714Y-63869140D02*
X70906047Y-63869140D01*
X70906047Y-63869140D02*
X71096523Y-63916759D01*
X71096523Y-63916759D02*
X71191761Y-64011997D01*
X71191761Y-64011997D02*
X71239380Y-64107235D01*
X70239380Y-65440568D02*
X70239380Y-64964378D01*
X70239380Y-64964378D02*
X71239380Y-64964378D01*
X71239380Y-66392950D02*
X70239380Y-66726283D01*
X70239380Y-66726283D02*
X71239380Y-67059616D01*
X70239380Y-67916759D02*
X70239380Y-67345331D01*
X70239380Y-67631045D02*
X71239380Y-67631045D01*
X71239380Y-67631045D02*
X71096523Y-67535807D01*
X71096523Y-67535807D02*
X71001285Y-67440569D01*
X71001285Y-67440569D02*
X70953666Y-67345331D01*
X70334619Y-68345331D02*
X70287000Y-68392950D01*
X70287000Y-68392950D02*
X70239380Y-68345331D01*
X70239380Y-68345331D02*
X70287000Y-68297712D01*
X70287000Y-68297712D02*
X70334619Y-68345331D01*
X70334619Y-68345331D02*
X70239380Y-68345331D01*
X71239380Y-69011997D02*
X71239380Y-69107235D01*
X71239380Y-69107235D02*
X71191761Y-69202473D01*
X71191761Y-69202473D02*
X71144142Y-69250092D01*
X71144142Y-69250092D02*
X71048904Y-69297711D01*
X71048904Y-69297711D02*
X70858428Y-69345330D01*
X70858428Y-69345330D02*
X70620333Y-69345330D01*
X70620333Y-69345330D02*
X70429857Y-69297711D01*
X70429857Y-69297711D02*
X70334619Y-69250092D01*
X70334619Y-69250092D02*
X70287000Y-69202473D01*
X70287000Y-69202473D02*
X70239380Y-69107235D01*
X70239380Y-69107235D02*
X70239380Y-69011997D01*
X70239380Y-69011997D02*
X70287000Y-68916759D01*
X70287000Y-68916759D02*
X70334619Y-68869140D01*
X70334619Y-68869140D02*
X70429857Y-68821521D01*
X70429857Y-68821521D02*
X70620333Y-68773902D01*
X70620333Y-68773902D02*
X70858428Y-68773902D01*
X70858428Y-68773902D02*
X71048904Y-68821521D01*
X71048904Y-68821521D02*
X71144142Y-68869140D01*
X71144142Y-68869140D02*
X71191761Y-68916759D01*
X71191761Y-68916759D02*
X71239380Y-69011997D01*
D13*
X53390265Y-70256704D02*
X53866455Y-70256704D01*
X53295027Y-70542419D02*
X53628360Y-69542419D01*
X53628360Y-69542419D02*
X53961693Y-70542419D01*
X54295027Y-70542419D02*
X54295027Y-69542419D01*
X54295027Y-69542419D02*
X54866455Y-70542419D01*
X54866455Y-70542419D02*
X54866455Y-69542419D01*
X55199789Y-69542419D02*
X55771217Y-69542419D01*
X55485503Y-70542419D02*
X55485503Y-69542419D01*
X56104551Y-70018609D02*
X56437884Y-70018609D01*
X56580741Y-70542419D02*
X56104551Y-70542419D01*
X56104551Y-70542419D02*
X56104551Y-69542419D01*
X56104551Y-69542419D02*
X56580741Y-69542419D01*
X57009313Y-70542419D02*
X57009313Y-69542419D01*
X57009313Y-69542419D02*
X57580741Y-70542419D01*
X57580741Y-70542419D02*
X57580741Y-69542419D01*
X58056932Y-70542419D02*
X58056932Y-69542419D01*
X58056932Y-69542419D02*
X58628360Y-70542419D01*
X58628360Y-70542419D02*
X58628360Y-69542419D01*
X59056932Y-70256704D02*
X59533122Y-70256704D01*
X58961694Y-70542419D02*
X59295027Y-69542419D01*
X59295027Y-69542419D02*
X59628360Y-70542419D01*
X54947884Y-49372419D02*
X54947884Y-50181942D01*
X54947884Y-50181942D02*
X54995503Y-50277180D01*
X54995503Y-50277180D02*
X55043122Y-50324800D01*
X55043122Y-50324800D02*
X55138360Y-50372419D01*
X55138360Y-50372419D02*
X55328836Y-50372419D01*
X55328836Y-50372419D02*
X55424074Y-50324800D01*
X55424074Y-50324800D02*
X55471693Y-50277180D01*
X55471693Y-50277180D02*
X55519312Y-50181942D01*
X55519312Y-50181942D02*
X55519312Y-49372419D01*
X55947884Y-50324800D02*
X56090741Y-50372419D01*
X56090741Y-50372419D02*
X56328836Y-50372419D01*
X56328836Y-50372419D02*
X56424074Y-50324800D01*
X56424074Y-50324800D02*
X56471693Y-50277180D01*
X56471693Y-50277180D02*
X56519312Y-50181942D01*
X56519312Y-50181942D02*
X56519312Y-50086704D01*
X56519312Y-50086704D02*
X56471693Y-49991466D01*
X56471693Y-49991466D02*
X56424074Y-49943847D01*
X56424074Y-49943847D02*
X56328836Y-49896228D01*
X56328836Y-49896228D02*
X56138360Y-49848609D01*
X56138360Y-49848609D02*
X56043122Y-49800990D01*
X56043122Y-49800990D02*
X55995503Y-49753371D01*
X55995503Y-49753371D02*
X55947884Y-49658133D01*
X55947884Y-49658133D02*
X55947884Y-49562895D01*
X55947884Y-49562895D02*
X55995503Y-49467657D01*
X55995503Y-49467657D02*
X56043122Y-49420038D01*
X56043122Y-49420038D02*
X56138360Y-49372419D01*
X56138360Y-49372419D02*
X56376455Y-49372419D01*
X56376455Y-49372419D02*
X56519312Y-49420038D01*
X57281217Y-49848609D02*
X57424074Y-49896228D01*
X57424074Y-49896228D02*
X57471693Y-49943847D01*
X57471693Y-49943847D02*
X57519312Y-50039085D01*
X57519312Y-50039085D02*
X57519312Y-50181942D01*
X57519312Y-50181942D02*
X57471693Y-50277180D01*
X57471693Y-50277180D02*
X57424074Y-50324800D01*
X57424074Y-50324800D02*
X57328836Y-50372419D01*
X57328836Y-50372419D02*
X56947884Y-50372419D01*
X56947884Y-50372419D02*
X56947884Y-49372419D01*
X56947884Y-49372419D02*
X57281217Y-49372419D01*
X57281217Y-49372419D02*
X57376455Y-49420038D01*
X57376455Y-49420038D02*
X57424074Y-49467657D01*
X57424074Y-49467657D02*
X57471693Y-49562895D01*
X57471693Y-49562895D02*
X57471693Y-49658133D01*
X57471693Y-49658133D02*
X57424074Y-49753371D01*
X57424074Y-49753371D02*
X57376455Y-49800990D01*
X57376455Y-49800990D02*
X57281217Y-49848609D01*
X57281217Y-49848609D02*
X56947884Y-49848609D01*
D14*
%TO.C,RESET-RESISTOR1*%
X76354000Y-56504064D02*
X76354000Y-56049936D01*
X77824000Y-56504064D02*
X77824000Y-56049936D01*
D15*
%TO.C,RESET-SWITCH1*%
X74236000Y-59549000D02*
X79936000Y-59549000D01*
X74236000Y-64149000D02*
X74236000Y-59549000D01*
X79936000Y-59549000D02*
X79936000Y-64149000D01*
X79936000Y-64149000D02*
X74236000Y-64149000D01*
X72927419Y-59049000D02*
G75*
G03*
X72927419Y-59049000I-141419J0D01*
G01*
X75746553Y-60549000D02*
G75*
G03*
X75746553Y-60549000I-360553J0D01*
G01*
D16*
X75686000Y-60848320D02*
X75084640Y-60848320D01*
X75084640Y-60249000D01*
X75686000Y-60249000D01*
X75686000Y-60848320D01*
G36*
X75686000Y-60848320D02*
G01*
X75084640Y-60848320D01*
X75084640Y-60249000D01*
X75686000Y-60249000D01*
X75686000Y-60848320D01*
G37*
D14*
%TO.C,J1*%
X84522000Y-55566000D02*
X85852000Y-55566000D01*
X84522000Y-56896000D02*
X84522000Y-55566000D01*
X84522000Y-58166000D02*
X84522000Y-70926000D01*
X84522000Y-58166000D02*
X87122000Y-58166000D01*
X84522000Y-70926000D02*
X89722000Y-70926000D01*
X87122000Y-55566000D02*
X89722000Y-55566000D01*
X87122000Y-58166000D02*
X87122000Y-55566000D01*
X89722000Y-55566000D02*
X89722000Y-70926000D01*
%TO.C,ESP32-C3_SuperMini1*%
X46994000Y-71090000D02*
X65274000Y-71090000D01*
X46995217Y-68270005D02*
X46994000Y-71090000D01*
X46996275Y-65819984D02*
X46996059Y-66320005D01*
X46997375Y-63269984D02*
X46997181Y-63720006D01*
X46998475Y-60720006D02*
X46998281Y-61170006D01*
X46999575Y-58169985D02*
X46999381Y-58620007D01*
X47000676Y-55619986D02*
X47000482Y-56069986D01*
X47001755Y-53119986D02*
X47001561Y-53569986D01*
X47002856Y-50569987D02*
X47002662Y-51019986D01*
X47004000Y-47920000D02*
X47003763Y-48470009D01*
X52044000Y-47920000D02*
X47004000Y-47920000D01*
X65274000Y-71090000D02*
X65275196Y-68319996D01*
X65275196Y-68319996D02*
X65275196Y-68319996D01*
X65276081Y-66269997D02*
X65276081Y-66269997D01*
X65276081Y-66269997D02*
X65276297Y-65769997D01*
X65277160Y-63769997D02*
X65277376Y-63269997D01*
X65278260Y-61219998D02*
X65278476Y-60719998D01*
X65279360Y-58669998D02*
X65279576Y-58169998D01*
X65280460Y-56119998D02*
X65280676Y-55619999D01*
X65281561Y-53569999D02*
X65281777Y-53069999D01*
X65282640Y-51069999D02*
X65282856Y-50570000D01*
X65283741Y-48520000D02*
X65284000Y-47920000D01*
X65284000Y-47920000D02*
X60144000Y-47920000D01*
D13*
X52097334Y-47740000D02*
X60144000Y-47740000D01*
X60144000Y-47740000D02*
X60144000Y-51500000D01*
X60144000Y-51500000D02*
X52097334Y-51500000D01*
X52097334Y-51500000D02*
X52097334Y-47740000D01*
D14*
%TO.C,LED-RESISTOR1*%
X81634000Y-56049936D02*
X81634000Y-56504064D01*
X80164000Y-56049936D02*
X80164000Y-56504064D01*
%TO.C,G\u002A\u002A\u002A*%
G36*
X67411417Y-66792526D02*
G01*
X67433336Y-66815116D01*
X67448759Y-66851287D01*
X67451042Y-66860403D01*
X67451766Y-66895358D01*
X67439709Y-66926647D01*
X67417883Y-66951929D01*
X67389301Y-66968858D01*
X67356978Y-66975090D01*
X67323928Y-66968283D01*
X67316834Y-66964789D01*
X67280140Y-66937100D01*
X67257746Y-66902691D01*
X67251445Y-66879388D01*
X67249399Y-66852187D01*
X67252226Y-66837901D01*
X67258369Y-66837427D01*
X67266270Y-66851663D01*
X67271287Y-66867951D01*
X67287864Y-66907446D01*
X67313593Y-66936715D01*
X67346140Y-66953312D01*
X67354430Y-66955094D01*
X67376718Y-66955741D01*
X67395965Y-66947354D01*
X67408255Y-66937898D01*
X67424573Y-66920781D01*
X67433512Y-66904817D01*
X67434089Y-66901185D01*
X67432592Y-66891487D01*
X67425118Y-66891412D01*
X67412431Y-66897447D01*
X67393571Y-66904486D01*
X67383229Y-66903253D01*
X67384065Y-66894823D01*
X67389551Y-66888201D01*
X67399660Y-66868200D01*
X67400570Y-66843087D01*
X67392340Y-66821010D01*
X67389035Y-66817093D01*
X67372069Y-66807773D01*
X67350624Y-66803726D01*
X67324920Y-66803066D01*
X67352367Y-66791097D01*
X67384071Y-66784270D01*
X67411417Y-66792526D01*
G37*
G36*
X66938024Y-65490993D02*
G01*
X66987712Y-65497014D01*
X67052323Y-65506963D01*
X67066149Y-65509267D01*
X67166295Y-65525250D01*
X67257696Y-65537780D01*
X67345150Y-65547292D01*
X67433458Y-65554222D01*
X67527419Y-65559006D01*
X67631832Y-65562079D01*
X67652427Y-65562490D01*
X67721915Y-65563790D01*
X67781443Y-65565506D01*
X67832640Y-65568581D01*
X67877135Y-65573956D01*
X67916554Y-65582571D01*
X67952526Y-65595368D01*
X67986680Y-65613287D01*
X68020642Y-65637271D01*
X68056042Y-65668261D01*
X68094506Y-65707196D01*
X68137664Y-65755020D01*
X68187143Y-65812672D01*
X68244570Y-65881094D01*
X68282918Y-65926990D01*
X68319044Y-65970416D01*
X68353968Y-66012785D01*
X68385529Y-66051447D01*
X68411565Y-66083751D01*
X68429916Y-66107045D01*
X68433233Y-66111394D01*
X68468621Y-66158326D01*
X68411026Y-66252909D01*
X68364859Y-66327655D01*
X68325198Y-66389351D01*
X68291061Y-66439285D01*
X68261465Y-66478742D01*
X68235428Y-66509007D01*
X68211965Y-66531365D01*
X68190093Y-66547104D01*
X68183048Y-66551069D01*
X68165878Y-66558498D01*
X68156522Y-66556903D01*
X68152847Y-66552442D01*
X68146524Y-66535260D01*
X68150549Y-66516552D01*
X68166006Y-66492865D01*
X68174974Y-66481990D01*
X68193199Y-66459026D01*
X68200515Y-66446172D01*
X68198240Y-66442950D01*
X68187692Y-66448886D01*
X68170190Y-66463503D01*
X68147051Y-66486324D01*
X68138914Y-66495019D01*
X68097503Y-66535620D01*
X68060381Y-66562175D01*
X68025921Y-66575689D01*
X68004999Y-66577961D01*
X67986280Y-66571768D01*
X67979811Y-66561399D01*
X67980371Y-66541264D01*
X67992362Y-66526025D01*
X68007703Y-66521355D01*
X68024379Y-66515530D01*
X68041954Y-66501732D01*
X68054344Y-66485474D01*
X68056757Y-66476908D01*
X68062731Y-66467028D01*
X68078703Y-66450345D01*
X68101752Y-66429781D01*
X68113363Y-66420272D01*
X68145623Y-66393271D01*
X68164416Y-66374404D01*
X68170038Y-66363310D01*
X68162783Y-66359623D01*
X68162583Y-66359623D01*
X68153314Y-66364169D01*
X68134331Y-66376409D01*
X68108789Y-66394243D01*
X68090822Y-66407354D01*
X68047373Y-66439370D01*
X68014709Y-66462721D01*
X67990749Y-66478545D01*
X67973413Y-66487981D01*
X67960623Y-66492166D01*
X67950299Y-66492237D01*
X67940725Y-66489473D01*
X67924650Y-66478645D01*
X67919487Y-66466970D01*
X67924735Y-66454536D01*
X67937773Y-66435898D01*
X67954883Y-66415357D01*
X67972343Y-66397213D01*
X67986433Y-66385766D01*
X67991381Y-66383882D01*
X68000584Y-66378698D01*
X68016939Y-66365376D01*
X68029795Y-66353558D01*
X68054181Y-66331256D01*
X68079355Y-66309888D01*
X68088864Y-66302392D01*
X68103819Y-66288777D01*
X68109434Y-66278794D01*
X68108281Y-66276570D01*
X68098860Y-66279094D01*
X68080090Y-66289939D01*
X68055119Y-66307159D01*
X68038588Y-66319649D01*
X68007657Y-66342941D01*
X67985050Y-66357414D01*
X67967002Y-66364994D01*
X67949749Y-66367606D01*
X67944602Y-66367709D01*
X67918178Y-66369592D01*
X67895389Y-66374214D01*
X67892733Y-66375130D01*
X67873293Y-66377405D01*
X67853344Y-66372691D01*
X67839193Y-66363165D01*
X67836091Y-66355579D01*
X67842590Y-66348056D01*
X67859939Y-66335254D01*
X67884764Y-66319595D01*
X67892391Y-66315146D01*
X67932084Y-66291680D01*
X67968270Y-66268994D01*
X67998519Y-66248738D01*
X68020398Y-66232563D01*
X68031476Y-66222119D01*
X68032352Y-66220129D01*
X68026773Y-66214194D01*
X68011238Y-66217773D01*
X67988336Y-66230172D01*
X67983833Y-66233149D01*
X67949542Y-66254509D01*
X67910898Y-66275623D01*
X67872292Y-66294369D01*
X67838113Y-66308625D01*
X67812750Y-66316269D01*
X67811410Y-66316503D01*
X67791507Y-66318953D01*
X67783302Y-66316097D01*
X67782640Y-66305834D01*
X67783118Y-66302201D01*
X67792166Y-66284722D01*
X67815190Y-66269512D01*
X67818203Y-66268103D01*
X67842900Y-66255411D01*
X67870300Y-66239171D01*
X67896788Y-66221828D01*
X67918746Y-66205827D01*
X67932560Y-66193613D01*
X67935458Y-66188819D01*
X67931017Y-66182598D01*
X67916805Y-66183806D01*
X67891488Y-66192788D01*
X67853732Y-66209889D01*
X67853458Y-66210021D01*
X67817584Y-66225948D01*
X67790316Y-66235489D01*
X67773302Y-66238247D01*
X67768192Y-66233830D01*
X67769832Y-66229997D01*
X67778607Y-66221948D01*
X67797465Y-66207805D01*
X67822861Y-66190187D01*
X67831983Y-66184114D01*
X67865518Y-66160143D01*
X67887612Y-66139219D01*
X67901675Y-66117995D01*
X67903658Y-66113793D01*
X67913128Y-66089495D01*
X67913881Y-66078772D01*
X67906122Y-66081763D01*
X67890053Y-66098607D01*
X67886917Y-66102365D01*
X67870146Y-66120488D01*
X67851895Y-66134420D01*
X67829777Y-66144749D01*
X67801404Y-66152060D01*
X67764389Y-66156940D01*
X67716344Y-66159976D01*
X67654883Y-66161753D01*
X67644341Y-66161947D01*
X67570892Y-66162511D01*
X67512537Y-66161271D01*
X67468282Y-66158105D01*
X67437134Y-66152890D01*
X67418100Y-66145501D01*
X67410188Y-66135816D01*
X67409830Y-66132811D01*
X67413760Y-66119085D01*
X67426697Y-66107816D01*
X67450361Y-66098353D01*
X67486472Y-66090042D01*
X67536750Y-66082232D01*
X67546539Y-66080945D01*
X67614077Y-66071462D01*
X67668114Y-66061874D01*
X67711305Y-66051391D01*
X67746308Y-66039223D01*
X67775778Y-66024582D01*
X67802374Y-66006677D01*
X67806073Y-66003824D01*
X67817204Y-65993451D01*
X67816316Y-65988796D01*
X67802633Y-65989909D01*
X67775380Y-65996842D01*
X67738060Y-66008273D01*
X67654950Y-66028072D01*
X67563346Y-66038028D01*
X67467578Y-66038152D01*
X67371978Y-66028454D01*
X67280878Y-66008943D01*
X67274884Y-66007240D01*
X67184147Y-65975239D01*
X67091275Y-65931810D01*
X67001940Y-65879686D01*
X66980734Y-65865555D01*
X66933775Y-65832307D01*
X66899627Y-65805394D01*
X66876880Y-65783447D01*
X66864124Y-65765096D01*
X66859950Y-65748973D01*
X66859941Y-65748209D01*
X66864856Y-65729397D01*
X66877363Y-65723186D01*
X66894108Y-65730275D01*
X66903183Y-65739218D01*
X66931191Y-65764996D01*
X66972330Y-65792540D01*
X67023832Y-65820631D01*
X67082932Y-65848052D01*
X67146864Y-65873581D01*
X67212863Y-65896002D01*
X67278163Y-65914093D01*
X67320877Y-65923324D01*
X67377237Y-65930421D01*
X67443624Y-65933207D01*
X67514511Y-65931804D01*
X67584372Y-65926330D01*
X67647680Y-65916906D01*
X67651530Y-65916141D01*
X67686354Y-65908842D01*
X67714838Y-65902400D01*
X67733531Y-65897625D01*
X67739070Y-65895606D01*
X67738552Y-65889913D01*
X67724278Y-65887021D01*
X67698428Y-65886954D01*
X67663177Y-65889738D01*
X67627537Y-65894350D01*
X67585052Y-65899849D01*
X67541338Y-65904102D01*
X67503352Y-65906480D01*
X67489558Y-65906773D01*
X67405890Y-65900456D01*
X67312620Y-65881587D01*
X67210191Y-65850291D01*
X67099045Y-65806693D01*
X67041329Y-65780780D01*
X66998562Y-65761427D01*
X66951702Y-65741164D01*
X66908299Y-65723225D01*
X66891293Y-65716535D01*
X66826779Y-65690268D01*
X66777249Y-65666815D01*
X66743017Y-65646334D01*
X66727884Y-65633370D01*
X66716547Y-65610867D01*
X66717534Y-65603567D01*
X66788469Y-65603567D01*
X66789306Y-65610260D01*
X66802547Y-65620413D01*
X66828969Y-65634447D01*
X66869348Y-65652784D01*
X66912504Y-65670952D01*
X66959353Y-65690273D01*
X67010492Y-65711443D01*
X67058987Y-65731588D01*
X67090409Y-65744695D01*
X67188423Y-65780411D01*
X67283396Y-65803493D01*
X67379755Y-65814592D01*
X67481929Y-65814360D01*
X67535711Y-65810284D01*
X67579006Y-65805056D01*
X67617622Y-65798471D01*
X67648689Y-65791199D01*
X67669333Y-65783910D01*
X67676687Y-65777370D01*
X67669042Y-65775272D01*
X67647861Y-65772939D01*
X67615774Y-65770574D01*
X67575413Y-65768378D01*
X67539914Y-65766912D01*
X67472593Y-65763457D01*
X67411132Y-65757751D01*
X67352063Y-65749088D01*
X67291914Y-65736759D01*
X67227215Y-65720058D01*
X67154497Y-65698277D01*
X67073845Y-65671905D01*
X67018460Y-65654042D01*
X66964175Y-65637927D01*
X66913286Y-65624110D01*
X66868089Y-65613140D01*
X66830881Y-65605568D01*
X66803957Y-65601944D01*
X66789613Y-65602816D01*
X66788469Y-65603567D01*
X66717534Y-65603567D01*
X66719611Y-65588210D01*
X66736268Y-65570238D01*
X66738642Y-65568889D01*
X66762590Y-65562388D01*
X66798688Y-65560615D01*
X66843706Y-65563293D01*
X66894416Y-65570141D01*
X66947588Y-65580882D01*
X66982362Y-65589939D01*
X67104190Y-65622016D01*
X67221599Y-65647554D01*
X67225582Y-65648315D01*
X67264998Y-65654834D01*
X67311236Y-65660916D01*
X67361699Y-65666389D01*
X67413791Y-65671081D01*
X67464914Y-65674821D01*
X67512473Y-65677437D01*
X67553871Y-65678758D01*
X67586510Y-65678611D01*
X67607794Y-65676824D01*
X67614928Y-65674058D01*
X67616060Y-65667948D01*
X67609804Y-65662952D01*
X67594295Y-65658670D01*
X67567666Y-65654699D01*
X67528050Y-65650637D01*
X67491740Y-65647536D01*
X67427002Y-65641607D01*
X67369286Y-65634624D01*
X67314456Y-65625794D01*
X67258378Y-65614327D01*
X67196919Y-65599430D01*
X67125942Y-65580312D01*
X67094620Y-65571492D01*
X67044920Y-65557495D01*
X66998976Y-65544785D01*
X66959641Y-65534132D01*
X66929765Y-65526308D01*
X66912200Y-65522083D01*
X66910938Y-65521833D01*
X66889914Y-65515204D01*
X66875785Y-65506089D01*
X66875689Y-65505974D01*
X66872093Y-65496392D01*
X66880856Y-65490693D01*
X66902619Y-65488890D01*
X66938024Y-65490993D01*
G37*
G36*
X69535951Y-65528935D02*
G01*
X69604576Y-65532192D01*
X69669529Y-65537321D01*
X69728598Y-65544083D01*
X69779575Y-65552241D01*
X69820249Y-65561555D01*
X69848409Y-65571789D01*
X69858981Y-65578844D01*
X69864543Y-65587857D01*
X69858602Y-65596682D01*
X69848378Y-65603982D01*
X69840646Y-65608256D01*
X69830840Y-65611488D01*
X69816960Y-65613756D01*
X69797009Y-65615140D01*
X69768989Y-65615720D01*
X69730902Y-65615574D01*
X69680749Y-65614783D01*
X69616533Y-65613424D01*
X69612747Y-65613339D01*
X69545114Y-65612090D01*
X69489577Y-65611643D01*
X69447043Y-65611987D01*
X69418415Y-65613109D01*
X69404599Y-65614997D01*
X69403503Y-65616185D01*
X69414065Y-65626928D01*
X69432298Y-65636133D01*
X69459495Y-65644007D01*
X69496948Y-65650754D01*
X69545948Y-65656579D01*
X69607789Y-65661688D01*
X69683761Y-65666287D01*
X69734726Y-65668796D01*
X69789723Y-65671816D01*
X69830309Y-65675305D01*
X69858246Y-65679590D01*
X69875296Y-65685000D01*
X69883219Y-65691862D01*
X69884328Y-65696599D01*
X69876619Y-65707334D01*
X69854960Y-65718098D01*
X69821551Y-65728073D01*
X69778592Y-65736440D01*
X69776296Y-65736792D01*
X69741480Y-65740361D01*
X69692870Y-65742804D01*
X69632808Y-65744053D01*
X69563639Y-65744041D01*
X69536477Y-65743707D01*
X69472700Y-65742991D01*
X69423748Y-65743107D01*
X69388293Y-65744150D01*
X69365004Y-65746216D01*
X69352549Y-65749397D01*
X69349600Y-65753790D01*
X69351649Y-65756860D01*
X69360525Y-65758521D01*
X69382950Y-65760885D01*
X69416324Y-65763730D01*
X69458050Y-65766835D01*
X69504620Y-65769920D01*
X69581246Y-65773942D01*
X69648844Y-65775532D01*
X69712536Y-65774516D01*
X69777444Y-65770718D01*
X69848690Y-65763961D01*
X69918465Y-65755709D01*
X69975153Y-65749518D01*
X70017647Y-65747178D01*
X70047483Y-65748782D01*
X70066198Y-65754426D01*
X70075330Y-65764204D01*
X70075765Y-65765380D01*
X70069367Y-65770184D01*
X70049731Y-65777591D01*
X70019459Y-65786932D01*
X69981152Y-65797540D01*
X69937410Y-65808745D01*
X69890836Y-65819881D01*
X69844030Y-65830277D01*
X69799593Y-65839267D01*
X69763029Y-65845723D01*
X69685275Y-65854832D01*
X69595089Y-65859558D01*
X69495632Y-65859813D01*
X69395089Y-65855813D01*
X69352370Y-65853459D01*
X69323731Y-65852475D01*
X69307129Y-65852974D01*
X69300520Y-65855070D01*
X69301859Y-65858875D01*
X69304096Y-65860848D01*
X69322076Y-65868655D01*
X69353531Y-65875448D01*
X69395787Y-65881097D01*
X69446170Y-65885470D01*
X69502005Y-65888437D01*
X69560619Y-65889865D01*
X69619337Y-65889624D01*
X69675485Y-65887582D01*
X69726390Y-65883609D01*
X69738981Y-65882177D01*
X69773352Y-65876904D01*
X69817876Y-65868568D01*
X69867080Y-65858266D01*
X69915489Y-65847092D01*
X69920814Y-65845787D01*
X69996569Y-65829055D01*
X70058344Y-65819753D01*
X70106513Y-65817860D01*
X70141450Y-65823356D01*
X70159841Y-65832828D01*
X70172121Y-65845194D01*
X70173381Y-65857871D01*
X70168559Y-65871529D01*
X70153573Y-65891205D01*
X70124314Y-65914099D01*
X70082191Y-65939472D01*
X70028614Y-65966583D01*
X69964990Y-65994692D01*
X69892728Y-66023057D01*
X69853225Y-66037306D01*
X69798573Y-66055538D01*
X69750952Y-66068859D01*
X69705823Y-66077973D01*
X69658651Y-66083585D01*
X69604899Y-66086399D01*
X69540029Y-66087119D01*
X69532561Y-66087102D01*
X69463019Y-66085978D01*
X69405976Y-66082681D01*
X69357833Y-66076604D01*
X69314993Y-66067137D01*
X69273857Y-66053671D01*
X69232400Y-66036313D01*
X69205786Y-66024445D01*
X69185474Y-66015763D01*
X69175417Y-66011949D01*
X69175082Y-66011899D01*
X69176835Y-66017603D01*
X69185666Y-66031607D01*
X69187601Y-66034361D01*
X69214059Y-66059295D01*
X69254821Y-66080920D01*
X69308217Y-66098469D01*
X69344647Y-66106539D01*
X69393536Y-66116477D01*
X69428904Y-66125642D01*
X69453315Y-66134972D01*
X69469330Y-66145404D01*
X69477900Y-66155296D01*
X69483504Y-66168038D01*
X69480208Y-66177329D01*
X69466750Y-66183365D01*
X69441874Y-66186340D01*
X69404318Y-66186449D01*
X69352825Y-66183887D01*
X69312063Y-66180943D01*
X69257718Y-66177089D01*
X69217915Y-66175217D01*
X69191149Y-66175311D01*
X69175913Y-66177355D01*
X69171656Y-66179534D01*
X69166177Y-66190460D01*
X69173752Y-66200560D01*
X69195494Y-66210717D01*
X69220946Y-66218676D01*
X69255367Y-66230986D01*
X69281696Y-66245596D01*
X69297273Y-66260660D01*
X69299797Y-66273411D01*
X69289738Y-66278892D01*
X69264987Y-66281641D01*
X69240736Y-66281862D01*
X69196078Y-66280602D01*
X69153187Y-66278481D01*
X69115193Y-66275750D01*
X69085228Y-66272658D01*
X69066424Y-66269456D01*
X69061802Y-66267586D01*
X69049960Y-66263625D01*
X69030640Y-66262721D01*
X69011426Y-66264625D01*
X68999905Y-66269087D01*
X68999479Y-66269645D01*
X69003661Y-66277022D01*
X69018674Y-66290211D01*
X69041512Y-66306650D01*
X69047350Y-66310488D01*
X69085728Y-66337643D01*
X69110257Y-66360921D01*
X69122335Y-66381838D01*
X69124188Y-66393768D01*
X69121736Y-66402006D01*
X69111976Y-66406384D01*
X69091303Y-66408011D01*
X69077546Y-66408142D01*
X69044224Y-66406030D01*
X69019013Y-66398341D01*
X69001152Y-66387926D01*
X68974809Y-66372242D01*
X68959150Y-66368194D01*
X68954369Y-66374932D01*
X68960129Y-66382711D01*
X68975855Y-66398741D01*
X68999219Y-66420764D01*
X69027893Y-66446523D01*
X69031192Y-66449418D01*
X69060293Y-66475415D01*
X69084336Y-66497880D01*
X69100995Y-66514568D01*
X69107943Y-66523231D01*
X69108015Y-66523592D01*
X69102626Y-66541181D01*
X69090162Y-66556148D01*
X69077406Y-66561668D01*
X69047026Y-66556718D01*
X69008744Y-66543747D01*
X68967211Y-66524936D01*
X68927073Y-66502466D01*
X68892981Y-66478518D01*
X68884333Y-66471104D01*
X68866773Y-66460410D01*
X68851987Y-66458164D01*
X68845415Y-66461672D01*
X68850110Y-66468892D01*
X68867464Y-66481892D01*
X68868334Y-66482489D01*
X68891011Y-66500928D01*
X68909732Y-66521046D01*
X68913726Y-66526752D01*
X68925650Y-66543101D01*
X68945216Y-66566926D01*
X68968904Y-66593997D01*
X68978105Y-66604095D01*
X69007381Y-66638756D01*
X69023291Y-66665006D01*
X69025959Y-66683351D01*
X69015512Y-66694297D01*
X69001404Y-66697723D01*
X68977381Y-66695800D01*
X68950020Y-66683902D01*
X68917128Y-66660837D01*
X68888633Y-66636507D01*
X68849847Y-66602473D01*
X68820763Y-66578797D01*
X68801731Y-66565621D01*
X68793101Y-66563086D01*
X68795223Y-66571334D01*
X68808449Y-66590505D01*
X68824689Y-66610727D01*
X68844081Y-66635811D01*
X68858462Y-66657809D01*
X68865213Y-66672630D01*
X68865417Y-66674345D01*
X68871797Y-66687370D01*
X68888070Y-66703357D01*
X68897763Y-66710430D01*
X68920763Y-66728481D01*
X68929304Y-66743626D01*
X68924308Y-66757971D01*
X68920406Y-66762335D01*
X68898835Y-66772902D01*
X68869349Y-66769640D01*
X68832235Y-66752659D01*
X68787782Y-66722071D01*
X68763463Y-66702196D01*
X68738347Y-66681314D01*
X68722877Y-66670416D01*
X68714824Y-66668506D01*
X68711962Y-66674585D01*
X68711772Y-66679043D01*
X68715770Y-66689810D01*
X68719165Y-66691173D01*
X68727089Y-66697527D01*
X68739877Y-66713945D01*
X68750775Y-66730531D01*
X68769200Y-66756326D01*
X68789567Y-66778829D01*
X68799988Y-66787688D01*
X68816294Y-66802051D01*
X68824682Y-66814818D01*
X68824984Y-66816781D01*
X68819489Y-66830934D01*
X68802361Y-66837437D01*
X68772634Y-66836421D01*
X68733710Y-66829045D01*
X68702662Y-66822013D01*
X68684121Y-66818778D01*
X68674869Y-66819370D01*
X68671683Y-66823817D01*
X68671339Y-66829614D01*
X68677670Y-66845504D01*
X68687512Y-66854782D01*
X68701577Y-66870565D01*
X68700591Y-66888667D01*
X68686160Y-66904696D01*
X68668636Y-66916970D01*
X68688182Y-66924502D01*
X68702544Y-66930431D01*
X68728380Y-66941469D01*
X68762371Y-66956186D01*
X68801200Y-66973150D01*
X68812854Y-66978269D01*
X68930827Y-67029957D01*
X69035912Y-67075536D01*
X69129886Y-67115720D01*
X69214526Y-67151225D01*
X69291607Y-67182766D01*
X69362905Y-67211056D01*
X69430198Y-67236810D01*
X69495259Y-67260743D01*
X69559867Y-67283570D01*
X69625797Y-67306006D01*
X69635152Y-67309129D01*
X69770280Y-67352766D01*
X69891627Y-67389035D01*
X69999735Y-67418086D01*
X70095144Y-67440064D01*
X70155229Y-67451416D01*
X70202399Y-67459417D01*
X70235957Y-67465583D01*
X70258216Y-67470888D01*
X70271492Y-67476302D01*
X70278100Y-67482797D01*
X70280355Y-67491344D01*
X70280573Y-67502915D01*
X70280571Y-67504009D01*
X70273360Y-67530173D01*
X70251376Y-67553656D01*
X70214096Y-67574918D01*
X70187575Y-67585582D01*
X70145760Y-67595523D01*
X70091840Y-67600277D01*
X70029003Y-67599915D01*
X69960441Y-67594507D01*
X69889342Y-67584123D01*
X69859896Y-67578380D01*
X69795455Y-67563607D01*
X69731513Y-67546254D01*
X69666134Y-67525566D01*
X69597379Y-67500789D01*
X69523312Y-67471168D01*
X69441995Y-67435947D01*
X69351492Y-67394373D01*
X69249865Y-67345690D01*
X69242231Y-67341951D01*
X69401816Y-67341951D01*
X69413441Y-67350080D01*
X69436426Y-67362313D01*
X69468910Y-67377778D01*
X69509033Y-67395602D01*
X69554936Y-67414914D01*
X69604757Y-67434842D01*
X69624502Y-67442460D01*
X69739235Y-67483526D01*
X69841830Y-67514430D01*
X69932670Y-67535246D01*
X70012139Y-67546045D01*
X70080621Y-67546902D01*
X70133453Y-67539166D01*
X70163075Y-67530827D01*
X70176693Y-67524154D01*
X70174310Y-67519346D01*
X70155929Y-67516598D01*
X70133172Y-67516006D01*
X70058246Y-67511728D01*
X69970635Y-67498865D01*
X69870135Y-67477371D01*
X69756543Y-67447199D01*
X69629654Y-67408304D01*
X69577271Y-67391013D01*
X69528775Y-67375010D01*
X69484706Y-67361019D01*
X69447643Y-67349815D01*
X69420163Y-67342173D01*
X69404848Y-67338868D01*
X69403409Y-67338797D01*
X69401816Y-67341951D01*
X69242231Y-67341951D01*
X69199710Y-67321126D01*
X69147656Y-67295641D01*
X69100172Y-67272690D01*
X69059239Y-67253206D01*
X69026836Y-67238123D01*
X69004942Y-67228373D01*
X68995537Y-67224889D01*
X68995524Y-67224888D01*
X68986513Y-67227752D01*
X68992009Y-67236420D01*
X69012146Y-67251008D01*
X69047062Y-67271631D01*
X69057474Y-67277391D01*
X69151013Y-67328414D01*
X69232109Y-67372136D01*
X69302314Y-67409362D01*
X69363180Y-67440898D01*
X69416258Y-67467550D01*
X69463101Y-67490122D01*
X69500215Y-67507170D01*
X69584368Y-67544198D01*
X69656495Y-67574340D01*
X69718837Y-67598331D01*
X69773634Y-67616904D01*
X69823128Y-67630794D01*
X69869557Y-67640733D01*
X69915164Y-67647456D01*
X69934869Y-67649521D01*
X69966300Y-67652720D01*
X69984949Y-67656019D01*
X69994150Y-67660890D01*
X69997235Y-67668803D01*
X69997540Y-67677175D01*
X69989907Y-67703869D01*
X69968611Y-67727917D01*
X69936055Y-67748515D01*
X69894646Y-67764859D01*
X69846787Y-67776147D01*
X69794883Y-67781574D01*
X69741338Y-67780337D01*
X69704445Y-67775130D01*
X69602816Y-67749855D01*
X69491442Y-67711742D01*
X69370379Y-67660816D01*
X69239682Y-67597104D01*
X69099409Y-67520631D01*
X68949616Y-67431423D01*
X68940413Y-67425719D01*
X68891116Y-67395618D01*
X68853881Y-67374163D01*
X68827481Y-67360780D01*
X68810690Y-67354894D01*
X68802281Y-67355933D01*
X68800724Y-67360362D01*
X68807121Y-67366700D01*
X68824756Y-67380159D01*
X68851301Y-67399059D01*
X68884425Y-67421721D01*
X68903828Y-67434668D01*
X69030667Y-67517044D01*
X69146220Y-67588809D01*
X69251111Y-67650295D01*
X69345966Y-67701835D01*
X69431407Y-67743760D01*
X69508059Y-67776402D01*
X69576545Y-67800094D01*
X69605898Y-67808183D01*
X69643655Y-67819179D01*
X69666271Y-67829302D01*
X69673503Y-67838298D01*
X69665105Y-67845913D01*
X69646974Y-67850841D01*
X69606952Y-67852798D01*
X69555789Y-67846512D01*
X69495811Y-67832702D01*
X69429342Y-67812087D01*
X69358704Y-67785385D01*
X69286223Y-67753316D01*
X69215819Y-67717469D01*
X69125990Y-67666740D01*
X69034001Y-67611090D01*
X68936323Y-67548334D01*
X68856083Y-67494522D01*
X68801846Y-67458246D01*
X68759886Y-67431527D01*
X68729799Y-67413886D01*
X68711177Y-67404846D01*
X68703616Y-67403928D01*
X68706709Y-67410653D01*
X68720052Y-67424544D01*
X68743238Y-67445121D01*
X68775862Y-67471907D01*
X68817518Y-67504423D01*
X68867800Y-67542191D01*
X68926303Y-67584732D01*
X68942221Y-67596096D01*
X69047570Y-67669134D01*
X69142670Y-67731004D01*
X69228427Y-67782244D01*
X69305746Y-67823395D01*
X69375535Y-67854998D01*
X69378916Y-67856367D01*
X69417918Y-67873641D01*
X69442186Y-67888040D01*
X69451465Y-67899292D01*
X69445504Y-67907127D01*
X69429654Y-67910746D01*
X69396873Y-67909115D01*
X69353061Y-67898663D01*
X69300141Y-67880249D01*
X69240036Y-67854733D01*
X69174668Y-67822977D01*
X69105961Y-67785840D01*
X69035838Y-67744184D01*
X68986207Y-67712311D01*
X68943739Y-67683485D01*
X68896605Y-67650399D01*
X68847039Y-67614730D01*
X68797278Y-67578156D01*
X68749558Y-67542355D01*
X68706112Y-67509004D01*
X68669178Y-67479781D01*
X68640990Y-67456364D01*
X68623784Y-67440429D01*
X68623431Y-67440053D01*
X68606184Y-67425294D01*
X68591501Y-67419017D01*
X68583132Y-67422464D01*
X68582386Y-67426435D01*
X68588119Y-67434381D01*
X68604158Y-67451475D01*
X68628767Y-67476071D01*
X68660207Y-67506524D01*
X68696741Y-67541187D01*
X68736631Y-67578416D01*
X68778140Y-67616565D01*
X68819529Y-67653988D01*
X68859061Y-67689039D01*
X68867119Y-67696079D01*
X68922896Y-67742481D01*
X68981452Y-67787321D01*
X69039114Y-67827990D01*
X69092205Y-67861876D01*
X69130253Y-67883023D01*
X69157294Y-67899421D01*
X69169890Y-67912937D01*
X69169642Y-67922705D01*
X69158152Y-67927860D01*
X69137020Y-67927536D01*
X69107849Y-67920867D01*
X69079712Y-67910344D01*
X69025617Y-67884678D01*
X68971350Y-67854216D01*
X68915006Y-67817603D01*
X68854677Y-67773484D01*
X68788458Y-67720504D01*
X68714442Y-67657306D01*
X68676213Y-67623506D01*
X68639116Y-67590697D01*
X68605955Y-67561928D01*
X68578663Y-67538830D01*
X68559170Y-67523033D01*
X68549410Y-67516168D01*
X68548850Y-67516006D01*
X68542481Y-67522408D01*
X68542025Y-67526114D01*
X68547741Y-67538959D01*
X68563594Y-67560904D01*
X68587807Y-67590116D01*
X68618602Y-67624760D01*
X68654200Y-67663000D01*
X68692823Y-67703003D01*
X68732694Y-67742933D01*
X68772035Y-67780955D01*
X68809067Y-67815236D01*
X68842013Y-67843940D01*
X68869094Y-67865232D01*
X68873979Y-67868665D01*
X68904321Y-67890809D01*
X68920535Y-67906359D01*
X68922979Y-67915908D01*
X68912011Y-67920052D01*
X68905104Y-67920336D01*
X68875391Y-67913745D01*
X68836830Y-67894172D01*
X68789803Y-67861914D01*
X68734691Y-67817268D01*
X68671876Y-67760534D01*
X68601741Y-67692008D01*
X68567880Y-67657389D01*
X68521159Y-67609617D01*
X68484589Y-67573623D01*
X68457682Y-67549002D01*
X68439949Y-67535350D01*
X68430902Y-67532264D01*
X68430054Y-67539339D01*
X68431845Y-67544778D01*
X68442781Y-67564993D01*
X68462890Y-67594319D01*
X68490163Y-67630184D01*
X68522593Y-67670013D01*
X68558169Y-67711234D01*
X68583757Y-67739417D01*
X68614792Y-67773563D01*
X68635016Y-67797696D01*
X68645292Y-67812993D01*
X68646484Y-67820635D01*
X68644180Y-67821911D01*
X68624279Y-67818682D01*
X68596030Y-67803884D01*
X68561066Y-67778674D01*
X68521024Y-67744206D01*
X68485312Y-67709609D01*
X68443333Y-67665792D01*
X68400582Y-67619056D01*
X68359697Y-67572450D01*
X68323314Y-67529022D01*
X68294070Y-67491824D01*
X68279760Y-67471870D01*
X68264762Y-67443074D01*
X68260675Y-67419091D01*
X68267450Y-67402487D01*
X68281160Y-67396166D01*
X68295892Y-67398017D01*
X68299479Y-67404253D01*
X68303702Y-67420369D01*
X68306832Y-67426343D01*
X68314231Y-67433327D01*
X68323882Y-67427845D01*
X68326984Y-67424840D01*
X68335538Y-67418695D01*
X68347561Y-67415797D01*
X68365684Y-67416358D01*
X68392537Y-67420594D01*
X68430749Y-67428718D01*
X68461052Y-67435743D01*
X68490130Y-67442173D01*
X68512411Y-67446299D01*
X68523873Y-67447395D01*
X68524533Y-67447169D01*
X68524369Y-67438545D01*
X68509817Y-67428449D01*
X68482472Y-67417857D01*
X68470784Y-67414383D01*
X68424802Y-67400961D01*
X68392485Y-67389916D01*
X68371693Y-67380186D01*
X68360285Y-67370713D01*
X68356121Y-67360436D01*
X68355961Y-67357503D01*
X68349819Y-67339240D01*
X68340427Y-67330356D01*
X68321937Y-67324051D01*
X68293605Y-67318113D01*
X68261277Y-67313346D01*
X68230796Y-67310553D01*
X68208004Y-67310540D01*
X68202681Y-67311402D01*
X68188591Y-67320284D01*
X68188173Y-67332435D01*
X68200294Y-67341856D01*
X68209613Y-67346881D01*
X68206134Y-67353189D01*
X68198749Y-67358895D01*
X68172255Y-67368570D01*
X68138003Y-67365104D01*
X68096997Y-67348950D01*
X68050241Y-67320558D01*
X68004549Y-67284913D01*
X68875378Y-67284913D01*
X68885633Y-67295533D01*
X68899472Y-67306348D01*
X68925316Y-67323819D01*
X68961073Y-67346675D01*
X69004651Y-67373646D01*
X69053959Y-67403460D01*
X69106905Y-67434846D01*
X69161396Y-67466533D01*
X69215340Y-67497250D01*
X69243752Y-67513123D01*
X69341702Y-67565813D01*
X69433981Y-67612250D01*
X69519077Y-67651758D01*
X69595477Y-67683666D01*
X69661668Y-67707300D01*
X69710466Y-67720764D01*
X69735234Y-67723893D01*
X69768336Y-67724993D01*
X69804348Y-67724244D01*
X69837848Y-67721827D01*
X69863409Y-67717921D01*
X69871641Y-67715414D01*
X69881770Y-67710560D01*
X69883896Y-67706949D01*
X69876012Y-67703781D01*
X69856109Y-67700251D01*
X69822178Y-67695559D01*
X69821834Y-67695513D01*
X69746131Y-67681829D01*
X69664228Y-67659933D01*
X69575206Y-67629441D01*
X69478149Y-67589967D01*
X69372136Y-67541126D01*
X69256251Y-67482531D01*
X69129575Y-67413798D01*
X69067969Y-67378979D01*
X69021225Y-67352567D01*
X68978127Y-67328788D01*
X68941008Y-67308884D01*
X68912198Y-67294095D01*
X68894030Y-67285664D01*
X68890064Y-67284300D01*
X68875939Y-67281535D01*
X68875378Y-67284913D01*
X68004549Y-67284913D01*
X67998740Y-67280381D01*
X67972791Y-67257193D01*
X67909690Y-67204475D01*
X67846836Y-67165100D01*
X67779775Y-67136942D01*
X67704049Y-67117876D01*
X67668601Y-67112069D01*
X67633709Y-67107057D01*
X67589729Y-67100700D01*
X67543572Y-67093998D01*
X67518999Y-67090416D01*
X67433744Y-67079603D01*
X67362740Y-67074219D01*
X67305010Y-67074234D01*
X67259579Y-67079618D01*
X67248108Y-67082301D01*
X67218255Y-67089494D01*
X67203491Y-67091108D01*
X67203847Y-67087150D01*
X67219356Y-67077631D01*
X67223086Y-67075675D01*
X67242581Y-67062934D01*
X67246539Y-67051948D01*
X67235250Y-67041134D01*
X67229903Y-67038180D01*
X67213867Y-67028443D01*
X67190535Y-67012585D01*
X67169175Y-66997142D01*
X67126642Y-66965475D01*
X67117843Y-66988035D01*
X67111210Y-67016723D01*
X67110053Y-67049641D01*
X67114201Y-67079593D01*
X67120431Y-67095375D01*
X67126739Y-67109333D01*
X67122144Y-67117492D01*
X67120146Y-67118828D01*
X67113367Y-67130492D01*
X67114188Y-67153848D01*
X67114686Y-67156993D01*
X67116642Y-67174675D01*
X67114098Y-67179273D01*
X67106433Y-67170294D01*
X67093024Y-67147243D01*
X67086053Y-67134236D01*
X67073541Y-67095143D01*
X67071659Y-67049668D01*
X67079646Y-67002910D01*
X67096741Y-66959968D01*
X67116229Y-66932046D01*
X67124394Y-66918363D01*
X67120666Y-66909179D01*
X67176308Y-66909179D01*
X67179723Y-66922281D01*
X67190955Y-66936507D01*
X67209699Y-66954196D01*
X67252674Y-66984852D01*
X67300012Y-67004639D01*
X67348416Y-67013104D01*
X67394594Y-67009794D01*
X67435250Y-66994255D01*
X67446390Y-66986752D01*
X67474858Y-66955925D01*
X67496700Y-66914109D01*
X67510583Y-66865598D01*
X67515172Y-66814686D01*
X67511595Y-66776878D01*
X67506136Y-66747779D01*
X67439788Y-66747867D01*
X67402652Y-66749365D01*
X67366395Y-66753232D01*
X67338247Y-66758671D01*
X67335892Y-66759350D01*
X67290559Y-66777725D01*
X67249000Y-66803074D01*
X67214301Y-66832795D01*
X67189548Y-66864283D01*
X67178251Y-66892373D01*
X67176308Y-66909179D01*
X67120666Y-66909179D01*
X67119589Y-66906525D01*
X67115064Y-66895931D01*
X67117042Y-66880740D01*
X67126400Y-66858790D01*
X67144017Y-66827915D01*
X67164816Y-66795076D01*
X67207443Y-66743366D01*
X67262685Y-66698540D01*
X67327706Y-66662701D01*
X67361310Y-66649393D01*
X67384852Y-66641893D01*
X67407562Y-66636749D01*
X67433289Y-66633550D01*
X67465887Y-66631889D01*
X67509207Y-66631357D01*
X67531128Y-66631371D01*
X67607168Y-66633356D01*
X67675133Y-66638660D01*
X67723582Y-66645581D01*
X67800642Y-66656782D01*
X67867340Y-66659567D01*
X67927148Y-66653896D01*
X67974473Y-66642607D01*
X68020131Y-66631196D01*
X68058260Y-66627790D01*
X68075555Y-66628745D01*
X68101863Y-66629994D01*
X68123326Y-66626309D01*
X68147220Y-66615939D01*
X68161883Y-66607964D01*
X68205323Y-66578018D01*
X68250841Y-66536989D01*
X68294526Y-66488815D01*
X68332467Y-66437437D01*
X68334905Y-66433669D01*
X68349194Y-66410512D01*
X68369659Y-66376194D01*
X68394574Y-66333665D01*
X68422214Y-66285878D01*
X68450855Y-66235784D01*
X68460878Y-66218107D01*
X68512947Y-66126230D01*
X68557901Y-66047312D01*
X68596469Y-65980167D01*
X68629378Y-65923606D01*
X68657354Y-65876443D01*
X68681124Y-65837493D01*
X68701415Y-65805567D01*
X68718955Y-65779479D01*
X68734469Y-65758042D01*
X68748686Y-65740069D01*
X68762332Y-65724374D01*
X68765240Y-65721205D01*
X68812245Y-65675853D01*
X68857336Y-65642947D01*
X68899229Y-65623186D01*
X68936638Y-65617271D01*
X68952008Y-65619398D01*
X68973906Y-65624895D01*
X68947000Y-65637926D01*
X68915522Y-65657907D01*
X68880421Y-65687674D01*
X68846062Y-65722953D01*
X68816813Y-65759469D01*
X68805986Y-65775987D01*
X68791465Y-65801166D01*
X68772045Y-65836168D01*
X68750222Y-65876434D01*
X68728493Y-65917405D01*
X68727709Y-65918903D01*
X68684746Y-65999869D01*
X68636392Y-66089057D01*
X68585714Y-66180906D01*
X68535780Y-66269853D01*
X68491308Y-66347493D01*
X68442424Y-66429495D01*
X68398027Y-66498638D01*
X68356432Y-66557015D01*
X68315956Y-66606715D01*
X68274916Y-66649830D01*
X68231627Y-66688452D01*
X68192208Y-66719017D01*
X68167198Y-66738175D01*
X68148217Y-66754326D01*
X68138352Y-66764780D01*
X68137623Y-66766546D01*
X68144436Y-66770990D01*
X68162287Y-66770052D01*
X68187290Y-66764586D01*
X68215562Y-66755449D01*
X68243218Y-66743497D01*
X68243997Y-66743103D01*
X68284442Y-66716725D01*
X68328535Y-66677496D01*
X68374116Y-66627660D01*
X68419024Y-66569461D01*
X68438328Y-66541307D01*
X68456276Y-66512573D01*
X68480481Y-66471481D01*
X68509834Y-66420073D01*
X68543225Y-66360389D01*
X68548103Y-66351536D01*
X68905850Y-66351536D01*
X68912770Y-66357615D01*
X68926066Y-66359623D01*
X68941264Y-66356854D01*
X68946283Y-66351536D01*
X68939363Y-66345457D01*
X68926066Y-66343449D01*
X68910869Y-66346218D01*
X68905850Y-66351536D01*
X68548103Y-66351536D01*
X68579544Y-66294469D01*
X68617681Y-66224354D01*
X68656526Y-66152085D01*
X68672975Y-66121115D01*
X69101229Y-66121115D01*
X69102668Y-66129510D01*
X69111007Y-66144858D01*
X69111149Y-66145075D01*
X69124137Y-66157975D01*
X69139504Y-66165036D01*
X69152022Y-66164846D01*
X69156534Y-66157339D01*
X69150575Y-66148819D01*
X69136427Y-66137461D01*
X69119682Y-66126928D01*
X69105932Y-66120882D01*
X69101229Y-66121115D01*
X68672975Y-66121115D01*
X68694970Y-66079701D01*
X68731901Y-66009244D01*
X68765049Y-65945008D01*
X69246999Y-65945008D01*
X69249530Y-65946406D01*
X69283677Y-65958668D01*
X69328502Y-65971175D01*
X69378590Y-65982571D01*
X69428524Y-65991502D01*
X69431479Y-65991942D01*
X69512811Y-66000635D01*
X69593637Y-66002102D01*
X69681147Y-65996444D01*
X69690250Y-65995520D01*
X69734978Y-65989678D01*
X69784002Y-65981447D01*
X69828074Y-65972412D01*
X69835809Y-65970567D01*
X69872671Y-65960311D01*
X69914391Y-65946835D01*
X69957602Y-65931445D01*
X69998939Y-65915445D01*
X70035037Y-65900140D01*
X70062529Y-65886836D01*
X70078051Y-65876838D01*
X70078406Y-65876494D01*
X70083565Y-65869858D01*
X70079695Y-65867138D01*
X70064191Y-65867799D01*
X70046060Y-65869861D01*
X70023460Y-65873698D01*
X69988835Y-65880899D01*
X69945785Y-65890653D01*
X69897912Y-65902152D01*
X69860068Y-65911675D01*
X69778448Y-65931632D01*
X69708516Y-65946211D01*
X69646842Y-65955779D01*
X69589996Y-65960703D01*
X69534547Y-65961351D01*
X69477066Y-65958088D01*
X69450292Y-65955513D01*
X69390236Y-65949520D01*
X69338796Y-65945139D01*
X69297361Y-65942435D01*
X69267323Y-65941469D01*
X69250072Y-65942306D01*
X69246999Y-65945008D01*
X68765049Y-65945008D01*
X68766212Y-65942754D01*
X68796670Y-65882513D01*
X68819394Y-65837851D01*
X68838085Y-65804005D01*
X68855438Y-65777084D01*
X68874143Y-65753195D01*
X68896894Y-65728447D01*
X68917811Y-65707396D01*
X68954302Y-65672915D01*
X68986093Y-65647256D01*
X69018504Y-65626543D01*
X69053976Y-65608273D01*
X69124104Y-65577930D01*
X69191640Y-65555893D01*
X69261566Y-65541011D01*
X69338862Y-65532130D01*
X69396522Y-65528990D01*
X69465863Y-65527789D01*
X69535951Y-65528935D01*
G37*
%TO.C,POWER-RESISTOR1*%
X74014000Y-56049936D02*
X74014000Y-56504064D01*
X72544000Y-56049936D02*
X72544000Y-56504064D01*
%TO.C,POWER1*%
X84058000Y-48050000D02*
X84058000Y-49300000D01*
X84348000Y-48340000D02*
X84348000Y-54310000D01*
X84348000Y-54310000D02*
X91968000Y-54310000D01*
X84358000Y-48350000D02*
X84358000Y-49100000D01*
X84358000Y-49100000D02*
X86158000Y-49100000D01*
X84358000Y-50600000D02*
X85108000Y-50600000D01*
X85108000Y-50600000D02*
X85108000Y-53550000D01*
X85108000Y-53550000D02*
X88158000Y-53550000D01*
X85308000Y-48050000D02*
X84058000Y-48050000D01*
X86158000Y-48350000D02*
X84358000Y-48350000D01*
X86158000Y-49100000D02*
X86158000Y-48350000D01*
X87658000Y-48350000D02*
X87658000Y-49100000D01*
X87658000Y-49100000D02*
X88658000Y-49100000D01*
X88658000Y-48350000D02*
X87658000Y-48350000D01*
X88658000Y-49100000D02*
X88658000Y-48350000D01*
X90158000Y-48350000D02*
X90158000Y-49100000D01*
X90158000Y-49100000D02*
X91958000Y-49100000D01*
X91208000Y-50600000D02*
X91208000Y-53550000D01*
X91208000Y-53550000D02*
X88158000Y-53550000D01*
X91958000Y-48350000D02*
X90158000Y-48350000D01*
X91958000Y-49100000D02*
X91958000Y-48350000D01*
X91958000Y-50600000D02*
X91208000Y-50600000D01*
X91968000Y-48340000D02*
X84348000Y-48340000D01*
X91968000Y-54310000D02*
X91968000Y-48340000D01*
D15*
%TO.C,POWER-SWITCH1*%
X74236000Y-48500000D02*
X79936000Y-48500000D01*
X74236000Y-53100000D02*
X74236000Y-48500000D01*
X79936000Y-48500000D02*
X79936000Y-53100000D01*
X79936000Y-53100000D02*
X74236000Y-53100000D01*
X72927419Y-48000000D02*
G75*
G03*
X72927419Y-48000000I-141419J0D01*
G01*
X75746553Y-49500000D02*
G75*
G03*
X75746553Y-49500000I-360553J0D01*
G01*
D16*
X75686000Y-49799320D02*
X75084640Y-49799320D01*
X75084640Y-49200000D01*
X75686000Y-49200000D01*
X75686000Y-49799320D01*
G36*
X75686000Y-49799320D02*
G01*
X75084640Y-49799320D01*
X75084640Y-49200000D01*
X75686000Y-49200000D01*
X75686000Y-49799320D01*
G37*
D15*
%TO.C,LED-SWITCH1*%
X79939000Y-70753000D02*
X74239000Y-70753000D01*
X79939000Y-66153000D02*
X79939000Y-70753000D01*
X74239000Y-70753000D02*
X74239000Y-66153000D01*
X74239000Y-66153000D02*
X79939000Y-66153000D01*
X81530419Y-71253000D02*
G75*
G03*
X81530419Y-71253000I-141419J0D01*
G01*
X79149553Y-69753000D02*
G75*
G03*
X79149553Y-69753000I-360553J0D01*
G01*
D16*
X79090360Y-70053000D02*
X78489000Y-70053000D01*
X78489000Y-69453680D01*
X79090360Y-69453680D01*
X79090360Y-70053000D01*
G36*
X79090360Y-70053000D02*
G01*
X78489000Y-70053000D01*
X78489000Y-69453680D01*
X79090360Y-69453680D01*
X79090360Y-70053000D01*
G37*
%TD*%
M02*
