%TF.GenerationSoftware,KiCad,Pcbnew,7.0.9*%
%TF.CreationDate,2024-02-03T16:27:08+01:00*%
%TF.ProjectId,PC-Power-Control,50432d50-6f77-4657-922d-436f6e74726f,rev?*%
%TF.SameCoordinates,Original*%
%TF.FileFunction,Copper,L2,Bot*%
%TF.FilePolarity,Positive*%
%FSLAX46Y46*%
G04 Gerber Fmt 4.6, Leading zero omitted, Abs format (unit mm)*
G04 Created by KiCad (PCBNEW 7.0.9) date 2024-02-03 16:27:08*
%MOMM*%
%LPD*%
G01*
G04 APERTURE LIST*
G04 Aperture macros list*
%AMRoundRect*
0 Rectangle with rounded corners*
0 $1 Rounding radius*
0 $2 $3 $4 $5 $6 $7 $8 $9 X,Y pos of 4 corners*
0 Add a 4 corners polygon primitive as box body*
4,1,4,$2,$3,$4,$5,$6,$7,$8,$9,$2,$3,0*
0 Add four circle primitives for the rounded corners*
1,1,$1+$1,$2,$3*
1,1,$1+$1,$4,$5*
1,1,$1+$1,$6,$7*
1,1,$1+$1,$8,$9*
0 Add four rect primitives between the rounded corners*
20,1,$1+$1,$2,$3,$4,$5,0*
20,1,$1+$1,$4,$5,$6,$7,0*
20,1,$1+$1,$6,$7,$8,$9,0*
20,1,$1+$1,$8,$9,$2,$3,0*%
G04 Aperture macros list end*
%TA.AperFunction,ComponentPad*%
%ADD10R,1.700000X1.700000*%
%TD*%
%TA.AperFunction,ComponentPad*%
%ADD11O,1.700000X1.700000*%
%TD*%
%TA.AperFunction,ComponentPad*%
%ADD12RoundRect,0.250000X-0.600000X-0.750000X0.600000X-0.750000X0.600000X0.750000X-0.600000X0.750000X0*%
%TD*%
%TA.AperFunction,ComponentPad*%
%ADD13O,1.700000X2.000000*%
%TD*%
%TA.AperFunction,ComponentPad*%
%ADD14R,3.270000X1.960000*%
%TD*%
%TA.AperFunction,ViaPad*%
%ADD15C,0.500000*%
%TD*%
%TA.AperFunction,Conductor*%
%ADD16C,0.600000*%
%TD*%
%TA.AperFunction,Conductor*%
%ADD17C,0.400000*%
%TD*%
G04 APERTURE END LIST*
D10*
%TO.P,J2,1,Pin_1*%
%TO.N,Power +*%
X85725000Y-56896000D03*
D11*
%TO.P,J2,2,Pin_2*%
X88265000Y-56896000D03*
%TO.P,J2,3,Pin_3*%
%TO.N,Power -*%
X85725000Y-59436000D03*
%TO.P,J2,4,Pin_4*%
X88265000Y-59436000D03*
%TO.P,J2,5,Pin_5*%
%TO.N,Reset +*%
X85725000Y-61976000D03*
%TO.P,J2,6,Pin_6*%
X88265000Y-61976000D03*
%TO.P,J2,7,Pin_7*%
%TO.N,Reset -*%
X85725000Y-64516000D03*
%TO.P,J2,8,Pin_8*%
X88265000Y-64516000D03*
%TO.P,J2,9,Pin_9*%
%TO.N,Power LED +*%
X85725000Y-67056000D03*
%TO.P,J2,10,Pin_10*%
X88265000Y-67056000D03*
%TO.P,J2,11,Pin_11*%
%TO.N,Power LED -*%
X85725000Y-69596000D03*
%TO.P,J2,12,Pin_12*%
X88265000Y-69596000D03*
%TD*%
D12*
%TO.P,J1,1,Pin_1*%
%TO.N,GND*%
X87035000Y-50546000D03*
D13*
%TO.P,J1,2,Pin_2*%
%TO.N,+5V*%
X89535000Y-50546000D03*
%TD*%
D14*
%TO.P,ESP32-C3_SuperMini1,1,GPIO5/A3/D3*%
%TO.N,unconnected-(ESP32-C3_SuperMini1-GPIO5{slash}A3{slash}D3-Pad1)*%
X47864000Y-49530000D03*
%TO.P,ESP32-C3_SuperMini1,2,GPIO6/SDA/D4*%
%TO.N,unconnected-(ESP32-C3_SuperMini1-GPIO6{slash}SDA{slash}D4-Pad2)*%
X47864000Y-52070000D03*
%TO.P,ESP32-C3_SuperMini1,3,GPIO7/SCL/D5*%
%TO.N,unconnected-(ESP32-C3_SuperMini1-GPIO7{slash}SCL{slash}D5-Pad3)*%
X47864000Y-54610000D03*
%TO.P,ESP32-C3_SuperMini1,4,GPIO8/SCK/D8*%
%TO.N,unconnected-(ESP32-C3_SuperMini1-GPIO8{slash}SCK{slash}D8-Pad4)*%
X47864000Y-57150000D03*
%TO.P,ESP32-C3_SuperMini1,5,GPIO9/MISO/D9*%
%TO.N,unconnected-(ESP32-C3_SuperMini1-GPIO9{slash}MISO{slash}D9-Pad5)*%
X47864000Y-59690000D03*
%TO.P,ESP32-C3_SuperMini1,6,GPIO10/MOSI/D10*%
%TO.N,unconnected-(ESP32-C3_SuperMini1-GPIO10{slash}MOSI{slash}D10-Pad6)*%
X47864000Y-62230000D03*
%TO.P,ESP32-C3_SuperMini1,7,GPIO20/RX/D7*%
%TO.N,unconnected-(ESP32-C3_SuperMini1-GPIO20{slash}RX{slash}D7-Pad7)*%
X47864000Y-64770000D03*
%TO.P,ESP32-C3_SuperMini1,8,GPIO21/TX/D6*%
%TO.N,unconnected-(ESP32-C3_SuperMini1-GPIO21{slash}TX{slash}D6-Pad8)*%
X47864000Y-67310000D03*
%TO.P,ESP32-C3_SuperMini1,9,5V*%
%TO.N,+5V*%
X64404000Y-49530000D03*
%TO.P,ESP32-C3_SuperMini1,10,GND*%
%TO.N,GND*%
X64404000Y-52070000D03*
%TO.P,ESP32-C3_SuperMini1,11,3V3*%
%TO.N,3V3*%
X64404000Y-54610000D03*
%TO.P,ESP32-C3_SuperMini1,12,GPIO4/A2/D2*%
%TO.N,GPIO4*%
X64404000Y-57150000D03*
%TO.P,ESP32-C3_SuperMini1,13,GPIO3/A1/D1*%
%TO.N,GPIO3*%
X64404000Y-59690000D03*
%TO.P,ESP32-C3_SuperMini1,14,GPIO2/A0/D0*%
%TO.N,unconnected-(ESP32-C3_SuperMini1-GPIO2{slash}A0{slash}D0-Pad14)*%
X64404000Y-62230000D03*
%TO.P,ESP32-C3_SuperMini1,15,GPIO1/ADC1-1*%
%TO.N,GPIO1*%
X64404000Y-64770000D03*
%TO.P,ESP32-C3_SuperMini1,16,GPIO0/ADC1-0*%
%TO.N,unconnected-(ESP32-C3_SuperMini1-GPIO0{slash}ADC1-0-Pad16)*%
X64404000Y-67310000D03*
%TD*%
D15*
%TO.N,GND*%
X77089000Y-52070000D03*
%TO.N,Power LED -*%
X83185000Y-59055000D03*
%TO.N,3V3*%
X75565000Y-67183000D03*
%TD*%
D16*
%TO.N,GND*%
X87035000Y-50546000D02*
X85511000Y-52070000D01*
X85511000Y-52070000D02*
X63754000Y-52070000D01*
%TO.N,+5V*%
X88265000Y-48768000D02*
X89535000Y-50038000D01*
X89535000Y-50038000D02*
X89535000Y-50546000D01*
D17*
%TO.N,Power LED -*%
X83185000Y-67056000D02*
X83185000Y-59055000D01*
X85725000Y-69596000D02*
X83185000Y-67056000D01*
D16*
X85725000Y-69596000D02*
X88265000Y-69596000D01*
%TO.N,Power LED +*%
X85725000Y-67056000D02*
X88265000Y-67056000D01*
%TO.N,Reset -*%
X85725000Y-64516000D02*
X88265000Y-64516000D01*
%TO.N,Reset +*%
X85725000Y-61976000D02*
X88265000Y-61976000D01*
%TO.N,Power -*%
X85725000Y-59436000D02*
X88265000Y-59436000D01*
%TO.N,Power +*%
X85725000Y-56896000D02*
X88265000Y-56896000D01*
%TO.N,+5V*%
X63754000Y-49530000D02*
X84582000Y-49530000D01*
X84582000Y-49530000D02*
X85344000Y-48768000D01*
X89408000Y-49911000D02*
X89408000Y-50800000D01*
X85344000Y-48768000D02*
X88265000Y-48768000D01*
%TO.N,3V3*%
X75565000Y-60579000D02*
X69596000Y-54610000D01*
X69596000Y-54610000D02*
X63754000Y-54610000D01*
X75565000Y-67183000D02*
X75565000Y-60579000D01*
%TD*%
%TA.AperFunction,Conductor*%
%TO.N,GND*%
G36*
X86195013Y-50198053D02*
G01*
X87029936Y-50542909D01*
X87036274Y-50549235D01*
X87036939Y-50551415D01*
X87235247Y-51536882D01*
X87233520Y-51545668D01*
X87228613Y-51549844D01*
X85820061Y-52189231D01*
X85811111Y-52189530D01*
X85806952Y-52186850D01*
X85394412Y-51774310D01*
X85390985Y-51766037D01*
X85392245Y-51760755D01*
X85501070Y-51545668D01*
X86180108Y-50203585D01*
X86186901Y-50197751D01*
X86195013Y-50198053D01*
G37*
%TD.AperFunction*%
%TD*%
%TA.AperFunction,Conductor*%
%TO.N,GND*%
G36*
X66044322Y-51093693D02*
G01*
X67013970Y-51766510D01*
X67018813Y-51774041D01*
X67019000Y-51776122D01*
X67019000Y-52363877D01*
X67015573Y-52372150D01*
X67013970Y-52373490D01*
X66044324Y-53046305D01*
X66035573Y-53048205D01*
X66033044Y-53047446D01*
X63778085Y-52080754D01*
X63771831Y-52074344D01*
X63771941Y-52065390D01*
X63778085Y-52059246D01*
X64438515Y-51776122D01*
X66033044Y-51092552D01*
X66041998Y-51092443D01*
X66044322Y-51093693D01*
G37*
%TD.AperFunction*%
%TD*%
%TA.AperFunction,Conductor*%
%TO.N,+5V*%
G36*
X88767692Y-48844001D02*
G01*
X89987518Y-49695462D01*
X89992340Y-49703007D01*
X89991096Y-49710653D01*
X89537819Y-50542827D01*
X89531555Y-50548221D01*
X88727216Y-50841750D01*
X88718269Y-50841367D01*
X88712214Y-50834770D01*
X88711827Y-50833486D01*
X88336918Y-49269024D01*
X88338323Y-49260180D01*
X88340019Y-49258028D01*
X88752725Y-48845322D01*
X88760997Y-48841896D01*
X88767692Y-48844001D01*
G37*
%TD.AperFunction*%
%TD*%
%TA.AperFunction,Conductor*%
%TO.N,Power LED -*%
G36*
X83422124Y-59054948D02*
G01*
X83430382Y-59058408D01*
X83433776Y-59066695D01*
X83433718Y-59067812D01*
X83386054Y-59544464D01*
X83381821Y-59552355D01*
X83374412Y-59555000D01*
X82995588Y-59555000D01*
X82987315Y-59551573D01*
X82983946Y-59544464D01*
X82936281Y-59067812D01*
X82938868Y-59059239D01*
X82946759Y-59055006D01*
X82947865Y-59054948D01*
X83185000Y-59054000D01*
X83422124Y-59054948D01*
G37*
%TD.AperFunction*%
%TD*%
%TA.AperFunction,Conductor*%
%TO.N,Power LED -*%
G36*
X84671512Y-68255385D02*
G01*
X85366598Y-68535340D01*
X86039332Y-68806292D01*
X86045726Y-68812562D01*
X86045814Y-68821516D01*
X86045775Y-68821611D01*
X85727562Y-69592214D01*
X85721237Y-69598553D01*
X85721214Y-69598562D01*
X84950611Y-69916775D01*
X84941656Y-69916766D01*
X84935331Y-69910427D01*
X84935292Y-69910332D01*
X84496758Y-68821516D01*
X84384386Y-68542512D01*
X84384474Y-68533560D01*
X84386963Y-68529873D01*
X84658871Y-68257965D01*
X84667143Y-68254539D01*
X84671512Y-68255385D01*
G37*
%TD.AperFunction*%
%TD*%
%TA.AperFunction,Conductor*%
%TO.N,Power LED -*%
G36*
X87417196Y-69293245D02*
G01*
X87423855Y-69299230D01*
X87425000Y-69304277D01*
X87425000Y-69887722D01*
X87421573Y-69895995D01*
X87417195Y-69898755D01*
X86060729Y-70377609D01*
X86051787Y-70377131D01*
X86046029Y-70371065D01*
X85845206Y-69887722D01*
X85725864Y-69600488D01*
X85725856Y-69591534D01*
X85725865Y-69591511D01*
X85849791Y-69293244D01*
X86046030Y-68820932D01*
X86052368Y-68814609D01*
X86060728Y-68814390D01*
X87417196Y-69293245D01*
G37*
%TD.AperFunction*%
%TD*%
%TA.AperFunction,Conductor*%
%TO.N,Power LED -*%
G36*
X87938212Y-68814868D02*
G01*
X87943970Y-68820934D01*
X88264134Y-69591511D01*
X88264143Y-69600466D01*
X88264134Y-69600489D01*
X87943970Y-70371065D01*
X87937631Y-70377390D01*
X87929270Y-70377609D01*
X86572805Y-69898755D01*
X86566145Y-69892769D01*
X86565000Y-69887722D01*
X86565000Y-69304277D01*
X86568427Y-69296004D01*
X86572802Y-69293245D01*
X87929271Y-68814390D01*
X87938212Y-68814868D01*
G37*
%TD.AperFunction*%
%TD*%
%TA.AperFunction,Conductor*%
%TO.N,Power LED +*%
G36*
X87417196Y-66753245D02*
G01*
X87423855Y-66759230D01*
X87425000Y-66764277D01*
X87425000Y-67347722D01*
X87421573Y-67355995D01*
X87417195Y-67358755D01*
X86060729Y-67837609D01*
X86051787Y-67837131D01*
X86046029Y-67831065D01*
X85845206Y-67347722D01*
X85725864Y-67060488D01*
X85725856Y-67051534D01*
X85725865Y-67051511D01*
X85849791Y-66753244D01*
X86046030Y-66280932D01*
X86052368Y-66274609D01*
X86060728Y-66274390D01*
X87417196Y-66753245D01*
G37*
%TD.AperFunction*%
%TD*%
%TA.AperFunction,Conductor*%
%TO.N,Power LED +*%
G36*
X87938212Y-66274868D02*
G01*
X87943970Y-66280934D01*
X88264134Y-67051511D01*
X88264143Y-67060466D01*
X88264134Y-67060489D01*
X87943970Y-67831065D01*
X87937631Y-67837390D01*
X87929270Y-67837609D01*
X86572805Y-67358755D01*
X86566145Y-67352769D01*
X86565000Y-67347722D01*
X86565000Y-66764277D01*
X86568427Y-66756004D01*
X86572802Y-66753245D01*
X87929271Y-66274390D01*
X87938212Y-66274868D01*
G37*
%TD.AperFunction*%
%TD*%
%TA.AperFunction,Conductor*%
%TO.N,Reset -*%
G36*
X87417196Y-64213245D02*
G01*
X87423855Y-64219230D01*
X87425000Y-64224277D01*
X87425000Y-64807722D01*
X87421573Y-64815995D01*
X87417195Y-64818755D01*
X86060729Y-65297609D01*
X86051787Y-65297131D01*
X86046029Y-65291065D01*
X85845206Y-64807722D01*
X85725864Y-64520488D01*
X85725856Y-64511534D01*
X85725865Y-64511511D01*
X85849791Y-64213244D01*
X86046030Y-63740932D01*
X86052368Y-63734609D01*
X86060728Y-63734390D01*
X87417196Y-64213245D01*
G37*
%TD.AperFunction*%
%TD*%
%TA.AperFunction,Conductor*%
%TO.N,Reset -*%
G36*
X87938212Y-63734868D02*
G01*
X87943970Y-63740934D01*
X88264134Y-64511511D01*
X88264143Y-64520466D01*
X88264134Y-64520489D01*
X87943970Y-65291065D01*
X87937631Y-65297390D01*
X87929270Y-65297609D01*
X86572805Y-64818755D01*
X86566145Y-64812769D01*
X86565000Y-64807722D01*
X86565000Y-64224277D01*
X86568427Y-64216004D01*
X86572802Y-64213245D01*
X87929271Y-63734390D01*
X87938212Y-63734868D01*
G37*
%TD.AperFunction*%
%TD*%
%TA.AperFunction,Conductor*%
%TO.N,Reset +*%
G36*
X87417196Y-61673245D02*
G01*
X87423855Y-61679230D01*
X87425000Y-61684277D01*
X87425000Y-62267722D01*
X87421573Y-62275995D01*
X87417195Y-62278755D01*
X86060729Y-62757609D01*
X86051787Y-62757131D01*
X86046029Y-62751065D01*
X85845206Y-62267722D01*
X85725864Y-61980488D01*
X85725856Y-61971534D01*
X85725865Y-61971511D01*
X85849791Y-61673244D01*
X86046030Y-61200932D01*
X86052368Y-61194609D01*
X86060728Y-61194390D01*
X87417196Y-61673245D01*
G37*
%TD.AperFunction*%
%TD*%
%TA.AperFunction,Conductor*%
%TO.N,Reset +*%
G36*
X87938212Y-61194868D02*
G01*
X87943970Y-61200934D01*
X88264134Y-61971511D01*
X88264143Y-61980466D01*
X88264134Y-61980489D01*
X87943970Y-62751065D01*
X87937631Y-62757390D01*
X87929270Y-62757609D01*
X86572805Y-62278755D01*
X86566145Y-62272769D01*
X86565000Y-62267722D01*
X86565000Y-61684277D01*
X86568427Y-61676004D01*
X86572802Y-61673245D01*
X87929271Y-61194390D01*
X87938212Y-61194868D01*
G37*
%TD.AperFunction*%
%TD*%
%TA.AperFunction,Conductor*%
%TO.N,Power -*%
G36*
X87417196Y-59133245D02*
G01*
X87423855Y-59139230D01*
X87425000Y-59144277D01*
X87425000Y-59727722D01*
X87421573Y-59735995D01*
X87417195Y-59738755D01*
X86060729Y-60217609D01*
X86051787Y-60217131D01*
X86046029Y-60211065D01*
X85845206Y-59727722D01*
X85725864Y-59440488D01*
X85725856Y-59431534D01*
X85725865Y-59431511D01*
X85849791Y-59133244D01*
X86046030Y-58660932D01*
X86052368Y-58654609D01*
X86060728Y-58654390D01*
X87417196Y-59133245D01*
G37*
%TD.AperFunction*%
%TD*%
%TA.AperFunction,Conductor*%
%TO.N,Power -*%
G36*
X87938212Y-58654868D02*
G01*
X87943970Y-58660934D01*
X88264134Y-59431511D01*
X88264143Y-59440466D01*
X88264134Y-59440489D01*
X87943970Y-60211065D01*
X87937631Y-60217390D01*
X87929270Y-60217609D01*
X86572805Y-59738755D01*
X86566145Y-59732769D01*
X86565000Y-59727722D01*
X86565000Y-59144277D01*
X86568427Y-59136004D01*
X86572802Y-59133245D01*
X87929271Y-58654390D01*
X87938212Y-58654868D01*
G37*
%TD.AperFunction*%
%TD*%
%TA.AperFunction,Conductor*%
%TO.N,Power +*%
G36*
X86582936Y-56051135D02*
G01*
X87419656Y-56592542D01*
X87424740Y-56599914D01*
X87425000Y-56602365D01*
X87425000Y-57189634D01*
X87421573Y-57197907D01*
X87419656Y-57199457D01*
X86582936Y-57740864D01*
X86574129Y-57742481D01*
X86568312Y-57739319D01*
X86017979Y-57189634D01*
X85732286Y-56904276D01*
X85728855Y-56896007D01*
X85732276Y-56887733D01*
X86568312Y-56052679D01*
X86576587Y-56049258D01*
X86582936Y-56051135D01*
G37*
%TD.AperFunction*%
%TD*%
%TA.AperFunction,Conductor*%
%TO.N,Power +*%
G36*
X87938212Y-56114868D02*
G01*
X87943970Y-56120934D01*
X88264134Y-56891511D01*
X88264143Y-56900466D01*
X88264134Y-56900489D01*
X87943970Y-57671065D01*
X87937631Y-57677390D01*
X87929270Y-57677609D01*
X86572805Y-57198755D01*
X86566145Y-57192769D01*
X86565000Y-57187722D01*
X86565000Y-56604277D01*
X86568427Y-56596004D01*
X86572802Y-56593245D01*
X87929271Y-56114390D01*
X87938212Y-56114868D01*
G37*
%TD.AperFunction*%
%TD*%
%TA.AperFunction,Conductor*%
%TO.N,+5V*%
G36*
X66044322Y-48553693D02*
G01*
X67013970Y-49226510D01*
X67018813Y-49234041D01*
X67019000Y-49236122D01*
X67019000Y-49823877D01*
X67015573Y-49832150D01*
X67013970Y-49833490D01*
X66044324Y-50506305D01*
X66035573Y-50508205D01*
X66033044Y-50507446D01*
X63778085Y-49540754D01*
X63771831Y-49534344D01*
X63771941Y-49525390D01*
X63778085Y-49519246D01*
X64438515Y-49236122D01*
X66033044Y-48552552D01*
X66041998Y-48552443D01*
X66044322Y-48553693D01*
G37*
%TD.AperFunction*%
%TD*%
%TA.AperFunction,Conductor*%
%TO.N,3V3*%
G36*
X66044322Y-53633693D02*
G01*
X67013970Y-54306510D01*
X67018813Y-54314041D01*
X67019000Y-54316122D01*
X67019000Y-54903877D01*
X67015573Y-54912150D01*
X67013970Y-54913490D01*
X66044324Y-55586305D01*
X66035573Y-55588205D01*
X66033044Y-55587446D01*
X63778085Y-54620754D01*
X63771831Y-54614344D01*
X63771941Y-54605390D01*
X63778085Y-54599246D01*
X64438515Y-54316122D01*
X66033044Y-53632552D01*
X66041998Y-53632443D01*
X66044322Y-53633693D01*
G37*
%TD.AperFunction*%
%TD*%
M02*
