%TF.GenerationSoftware,KiCad,Pcbnew,7.0.9*%
%TF.CreationDate,2024-02-01T18:41:08+01:00*%
%TF.ProjectId,PC-Power-Control,50432d50-6f77-4657-922d-436f6e74726f,rev?*%
%TF.SameCoordinates,Original*%
%TF.FileFunction,Drillmap*%
%TF.FilePolarity,Positive*%
%FSLAX45Y45*%
G04 Gerber Fmt 4.5, Leading zero omitted, Abs format (unit mm)*
G04 Created by KiCad (PCBNEW 7.0.9) date 2024-02-01 18:41:08*
%MOMM*%
%LPD*%
G01*
G04 APERTURE LIST*
%ADD10C,0.100000*%
%ADD11C,0.200000*%
G04 APERTURE END LIST*
D10*
X6993400Y-6959600D02*
G75*
G03*
X6993400Y-6959600I-110000J0D01*
G01*
X6993400Y-5842000D02*
G75*
G03*
X6993400Y-5842000I-110000J0D01*
G01*
X4565650Y-4775200D02*
X9410700Y-4775200D01*
X9410700Y-7150100D01*
X4565650Y-7150100D01*
X4565650Y-4775200D01*
D11*
D10*
X7546500Y-6708300D02*
X7566500Y-6728300D01*
X7566500Y-6708300D02*
X7546500Y-6728300D01*
X7698900Y-5197000D02*
X7718900Y-5217000D01*
X7718900Y-5197000D02*
X7698900Y-5217000D01*
X8308500Y-5895500D02*
X8328500Y-5915500D01*
X8328500Y-5895500D02*
X8308500Y-5915500D01*
X4891400Y-4953000D02*
G75*
G03*
X4891400Y-4953000I-40000J0D01*
G01*
X4891400Y-5207000D02*
G75*
G03*
X4891400Y-5207000I-40000J0D01*
G01*
X4891400Y-5461000D02*
G75*
G03*
X4891400Y-5461000I-40000J0D01*
G01*
X4891400Y-5715000D02*
G75*
G03*
X4891400Y-5715000I-40000J0D01*
G01*
X4891400Y-5969000D02*
G75*
G03*
X4891400Y-5969000I-40000J0D01*
G01*
X4891400Y-6223000D02*
G75*
G03*
X4891400Y-6223000I-40000J0D01*
G01*
X4891400Y-6477000D02*
G75*
G03*
X4891400Y-6477000I-40000J0D01*
G01*
X4891400Y-6731000D02*
G75*
G03*
X4891400Y-6731000I-40000J0D01*
G01*
X6415400Y-4953000D02*
G75*
G03*
X6415400Y-4953000I-40000J0D01*
G01*
X6415400Y-5207000D02*
G75*
G03*
X6415400Y-5207000I-40000J0D01*
G01*
X6415400Y-5461000D02*
G75*
G03*
X6415400Y-5461000I-40000J0D01*
G01*
X6415400Y-5715000D02*
G75*
G03*
X6415400Y-5715000I-40000J0D01*
G01*
X6415400Y-5969000D02*
G75*
G03*
X6415400Y-5969000I-40000J0D01*
G01*
X6415400Y-6223000D02*
G75*
G03*
X6415400Y-6223000I-40000J0D01*
G01*
X6415400Y-6477000D02*
G75*
G03*
X6415400Y-6477000I-40000J0D01*
G01*
X6415400Y-6731000D02*
G75*
G03*
X6415400Y-6731000I-40000J0D01*
G01*
X8585200Y-5639600D02*
X8585200Y-5739600D01*
X8535200Y-5689600D02*
X8635200Y-5689600D01*
X8585200Y-5893600D02*
X8585200Y-5993600D01*
X8535200Y-5943600D02*
X8635200Y-5943600D01*
X8585200Y-6147600D02*
X8585200Y-6247600D01*
X8535200Y-6197600D02*
X8635200Y-6197600D01*
X8585200Y-6401600D02*
X8585200Y-6501600D01*
X8535200Y-6451600D02*
X8635200Y-6451600D01*
X8585200Y-6655600D02*
X8585200Y-6755600D01*
X8535200Y-6705600D02*
X8635200Y-6705600D01*
X8585200Y-6909600D02*
X8585200Y-7009600D01*
X8535200Y-6959600D02*
X8635200Y-6959600D01*
X8690800Y-5030000D02*
X8690800Y-5130000D01*
X8640800Y-5080000D02*
X8740800Y-5080000D01*
X8839200Y-5639600D02*
X8839200Y-5739600D01*
X8789200Y-5689600D02*
X8889200Y-5689600D01*
X8839200Y-5893600D02*
X8839200Y-5993600D01*
X8789200Y-5943600D02*
X8889200Y-5943600D01*
X8839200Y-6147600D02*
X8839200Y-6247600D01*
X8789200Y-6197600D02*
X8889200Y-6197600D01*
X8839200Y-6401600D02*
X8839200Y-6501600D01*
X8789200Y-6451600D02*
X8889200Y-6451600D01*
X8839200Y-6655600D02*
X8839200Y-6755600D01*
X8789200Y-6705600D02*
X8889200Y-6705600D01*
X8839200Y-6909600D02*
X8839200Y-7009600D01*
X8789200Y-6959600D02*
X8889200Y-6959600D01*
X8940800Y-5030000D02*
X8940800Y-5130000D01*
X8890800Y-5080000D02*
X8990800Y-5080000D01*
D11*
X4821427Y-7466584D02*
X4821427Y-7266584D01*
X4821427Y-7266584D02*
X4869046Y-7266584D01*
X4869046Y-7266584D02*
X4897617Y-7276108D01*
X4897617Y-7276108D02*
X4916665Y-7295155D01*
X4916665Y-7295155D02*
X4926189Y-7314203D01*
X4926189Y-7314203D02*
X4935713Y-7352298D01*
X4935713Y-7352298D02*
X4935713Y-7380869D01*
X4935713Y-7380869D02*
X4926189Y-7418965D01*
X4926189Y-7418965D02*
X4916665Y-7438012D01*
X4916665Y-7438012D02*
X4897617Y-7457060D01*
X4897617Y-7457060D02*
X4869046Y-7466584D01*
X4869046Y-7466584D02*
X4821427Y-7466584D01*
X5021427Y-7466584D02*
X5021427Y-7333250D01*
X5021427Y-7371346D02*
X5030951Y-7352298D01*
X5030951Y-7352298D02*
X5040474Y-7342774D01*
X5040474Y-7342774D02*
X5059522Y-7333250D01*
X5059522Y-7333250D02*
X5078570Y-7333250D01*
X5145236Y-7466584D02*
X5145236Y-7333250D01*
X5145236Y-7266584D02*
X5135713Y-7276108D01*
X5135713Y-7276108D02*
X5145236Y-7285631D01*
X5145236Y-7285631D02*
X5154760Y-7276108D01*
X5154760Y-7276108D02*
X5145236Y-7266584D01*
X5145236Y-7266584D02*
X5145236Y-7285631D01*
X5269046Y-7466584D02*
X5249998Y-7457060D01*
X5249998Y-7457060D02*
X5240474Y-7438012D01*
X5240474Y-7438012D02*
X5240474Y-7266584D01*
X5373808Y-7466584D02*
X5354760Y-7457060D01*
X5354760Y-7457060D02*
X5345236Y-7438012D01*
X5345236Y-7438012D02*
X5345236Y-7266584D01*
X5602379Y-7466584D02*
X5602379Y-7266584D01*
X5602379Y-7266584D02*
X5669046Y-7409441D01*
X5669046Y-7409441D02*
X5735712Y-7266584D01*
X5735712Y-7266584D02*
X5735712Y-7466584D01*
X5916665Y-7466584D02*
X5916665Y-7361822D01*
X5916665Y-7361822D02*
X5907141Y-7342774D01*
X5907141Y-7342774D02*
X5888093Y-7333250D01*
X5888093Y-7333250D02*
X5849998Y-7333250D01*
X5849998Y-7333250D02*
X5830951Y-7342774D01*
X5916665Y-7457060D02*
X5897617Y-7466584D01*
X5897617Y-7466584D02*
X5849998Y-7466584D01*
X5849998Y-7466584D02*
X5830951Y-7457060D01*
X5830951Y-7457060D02*
X5821427Y-7438012D01*
X5821427Y-7438012D02*
X5821427Y-7418965D01*
X5821427Y-7418965D02*
X5830951Y-7399917D01*
X5830951Y-7399917D02*
X5849998Y-7390393D01*
X5849998Y-7390393D02*
X5897617Y-7390393D01*
X5897617Y-7390393D02*
X5916665Y-7380869D01*
X6011903Y-7333250D02*
X6011903Y-7533250D01*
X6011903Y-7342774D02*
X6030951Y-7333250D01*
X6030951Y-7333250D02*
X6069046Y-7333250D01*
X6069046Y-7333250D02*
X6088093Y-7342774D01*
X6088093Y-7342774D02*
X6097617Y-7352298D01*
X6097617Y-7352298D02*
X6107141Y-7371346D01*
X6107141Y-7371346D02*
X6107141Y-7428488D01*
X6107141Y-7428488D02*
X6097617Y-7447536D01*
X6097617Y-7447536D02*
X6088093Y-7457060D01*
X6088093Y-7457060D02*
X6069046Y-7466584D01*
X6069046Y-7466584D02*
X6030951Y-7466584D01*
X6030951Y-7466584D02*
X6011903Y-7457060D01*
X6192855Y-7447536D02*
X6202379Y-7457060D01*
X6202379Y-7457060D02*
X6192855Y-7466584D01*
X6192855Y-7466584D02*
X6183332Y-7457060D01*
X6183332Y-7457060D02*
X6192855Y-7447536D01*
X6192855Y-7447536D02*
X6192855Y-7466584D01*
X6192855Y-7342774D02*
X6202379Y-7352298D01*
X6202379Y-7352298D02*
X6192855Y-7361822D01*
X6192855Y-7361822D02*
X6183332Y-7352298D01*
X6183332Y-7352298D02*
X6192855Y-7342774D01*
X6192855Y-7342774D02*
X6192855Y-7361822D01*
D10*
X4540650Y-7785100D02*
X4560650Y-7805100D01*
X4560650Y-7785100D02*
X4540650Y-7805100D01*
D11*
X4859522Y-7686584D02*
X4878570Y-7686584D01*
X4878570Y-7686584D02*
X4897617Y-7696108D01*
X4897617Y-7696108D02*
X4907141Y-7705631D01*
X4907141Y-7705631D02*
X4916665Y-7724679D01*
X4916665Y-7724679D02*
X4926189Y-7762774D01*
X4926189Y-7762774D02*
X4926189Y-7810393D01*
X4926189Y-7810393D02*
X4916665Y-7848488D01*
X4916665Y-7848488D02*
X4907141Y-7867536D01*
X4907141Y-7867536D02*
X4897617Y-7877060D01*
X4897617Y-7877060D02*
X4878570Y-7886584D01*
X4878570Y-7886584D02*
X4859522Y-7886584D01*
X4859522Y-7886584D02*
X4840474Y-7877060D01*
X4840474Y-7877060D02*
X4830951Y-7867536D01*
X4830951Y-7867536D02*
X4821427Y-7848488D01*
X4821427Y-7848488D02*
X4811903Y-7810393D01*
X4811903Y-7810393D02*
X4811903Y-7762774D01*
X4811903Y-7762774D02*
X4821427Y-7724679D01*
X4821427Y-7724679D02*
X4830951Y-7705631D01*
X4830951Y-7705631D02*
X4840474Y-7696108D01*
X4840474Y-7696108D02*
X4859522Y-7686584D01*
X5011903Y-7867536D02*
X5021427Y-7877060D01*
X5021427Y-7877060D02*
X5011903Y-7886584D01*
X5011903Y-7886584D02*
X5002379Y-7877060D01*
X5002379Y-7877060D02*
X5011903Y-7867536D01*
X5011903Y-7867536D02*
X5011903Y-7886584D01*
X5097617Y-7705631D02*
X5107141Y-7696108D01*
X5107141Y-7696108D02*
X5126189Y-7686584D01*
X5126189Y-7686584D02*
X5173808Y-7686584D01*
X5173808Y-7686584D02*
X5192855Y-7696108D01*
X5192855Y-7696108D02*
X5202379Y-7705631D01*
X5202379Y-7705631D02*
X5211903Y-7724679D01*
X5211903Y-7724679D02*
X5211903Y-7743727D01*
X5211903Y-7743727D02*
X5202379Y-7772298D01*
X5202379Y-7772298D02*
X5088094Y-7886584D01*
X5088094Y-7886584D02*
X5211903Y-7886584D01*
X5335713Y-7686584D02*
X5354760Y-7686584D01*
X5354760Y-7686584D02*
X5373808Y-7696108D01*
X5373808Y-7696108D02*
X5383332Y-7705631D01*
X5383332Y-7705631D02*
X5392855Y-7724679D01*
X5392855Y-7724679D02*
X5402379Y-7762774D01*
X5402379Y-7762774D02*
X5402379Y-7810393D01*
X5402379Y-7810393D02*
X5392855Y-7848488D01*
X5392855Y-7848488D02*
X5383332Y-7867536D01*
X5383332Y-7867536D02*
X5373808Y-7877060D01*
X5373808Y-7877060D02*
X5354760Y-7886584D01*
X5354760Y-7886584D02*
X5335713Y-7886584D01*
X5335713Y-7886584D02*
X5316665Y-7877060D01*
X5316665Y-7877060D02*
X5307141Y-7867536D01*
X5307141Y-7867536D02*
X5297617Y-7848488D01*
X5297617Y-7848488D02*
X5288094Y-7810393D01*
X5288094Y-7810393D02*
X5288094Y-7762774D01*
X5288094Y-7762774D02*
X5297617Y-7724679D01*
X5297617Y-7724679D02*
X5307141Y-7705631D01*
X5307141Y-7705631D02*
X5316665Y-7696108D01*
X5316665Y-7696108D02*
X5335713Y-7686584D01*
X5526189Y-7686584D02*
X5545236Y-7686584D01*
X5545236Y-7686584D02*
X5564284Y-7696108D01*
X5564284Y-7696108D02*
X5573808Y-7705631D01*
X5573808Y-7705631D02*
X5583332Y-7724679D01*
X5583332Y-7724679D02*
X5592855Y-7762774D01*
X5592855Y-7762774D02*
X5592855Y-7810393D01*
X5592855Y-7810393D02*
X5583332Y-7848488D01*
X5583332Y-7848488D02*
X5573808Y-7867536D01*
X5573808Y-7867536D02*
X5564284Y-7877060D01*
X5564284Y-7877060D02*
X5545236Y-7886584D01*
X5545236Y-7886584D02*
X5526189Y-7886584D01*
X5526189Y-7886584D02*
X5507141Y-7877060D01*
X5507141Y-7877060D02*
X5497617Y-7867536D01*
X5497617Y-7867536D02*
X5488094Y-7848488D01*
X5488094Y-7848488D02*
X5478570Y-7810393D01*
X5478570Y-7810393D02*
X5478570Y-7762774D01*
X5478570Y-7762774D02*
X5488094Y-7724679D01*
X5488094Y-7724679D02*
X5497617Y-7705631D01*
X5497617Y-7705631D02*
X5507141Y-7696108D01*
X5507141Y-7696108D02*
X5526189Y-7686584D01*
X5678570Y-7886584D02*
X5678570Y-7753250D01*
X5678570Y-7772298D02*
X5688093Y-7762774D01*
X5688093Y-7762774D02*
X5707141Y-7753250D01*
X5707141Y-7753250D02*
X5735713Y-7753250D01*
X5735713Y-7753250D02*
X5754760Y-7762774D01*
X5754760Y-7762774D02*
X5764284Y-7781822D01*
X5764284Y-7781822D02*
X5764284Y-7886584D01*
X5764284Y-7781822D02*
X5773808Y-7762774D01*
X5773808Y-7762774D02*
X5792855Y-7753250D01*
X5792855Y-7753250D02*
X5821427Y-7753250D01*
X5821427Y-7753250D02*
X5840474Y-7762774D01*
X5840474Y-7762774D02*
X5849998Y-7781822D01*
X5849998Y-7781822D02*
X5849998Y-7886584D01*
X5945236Y-7886584D02*
X5945236Y-7753250D01*
X5945236Y-7772298D02*
X5954760Y-7762774D01*
X5954760Y-7762774D02*
X5973808Y-7753250D01*
X5973808Y-7753250D02*
X6002379Y-7753250D01*
X6002379Y-7753250D02*
X6021427Y-7762774D01*
X6021427Y-7762774D02*
X6030951Y-7781822D01*
X6030951Y-7781822D02*
X6030951Y-7886584D01*
X6030951Y-7781822D02*
X6040474Y-7762774D01*
X6040474Y-7762774D02*
X6059522Y-7753250D01*
X6059522Y-7753250D02*
X6088093Y-7753250D01*
X6088093Y-7753250D02*
X6107141Y-7762774D01*
X6107141Y-7762774D02*
X6116665Y-7781822D01*
X6116665Y-7781822D02*
X6116665Y-7886584D01*
X6507141Y-7677060D02*
X6335713Y-7934203D01*
X6764284Y-7686584D02*
X6783332Y-7686584D01*
X6783332Y-7686584D02*
X6802379Y-7696108D01*
X6802379Y-7696108D02*
X6811903Y-7705631D01*
X6811903Y-7705631D02*
X6821427Y-7724679D01*
X6821427Y-7724679D02*
X6830951Y-7762774D01*
X6830951Y-7762774D02*
X6830951Y-7810393D01*
X6830951Y-7810393D02*
X6821427Y-7848488D01*
X6821427Y-7848488D02*
X6811903Y-7867536D01*
X6811903Y-7867536D02*
X6802379Y-7877060D01*
X6802379Y-7877060D02*
X6783332Y-7886584D01*
X6783332Y-7886584D02*
X6764284Y-7886584D01*
X6764284Y-7886584D02*
X6745236Y-7877060D01*
X6745236Y-7877060D02*
X6735713Y-7867536D01*
X6735713Y-7867536D02*
X6726189Y-7848488D01*
X6726189Y-7848488D02*
X6716665Y-7810393D01*
X6716665Y-7810393D02*
X6716665Y-7762774D01*
X6716665Y-7762774D02*
X6726189Y-7724679D01*
X6726189Y-7724679D02*
X6735713Y-7705631D01*
X6735713Y-7705631D02*
X6745236Y-7696108D01*
X6745236Y-7696108D02*
X6764284Y-7686584D01*
X6916665Y-7867536D02*
X6926189Y-7877060D01*
X6926189Y-7877060D02*
X6916665Y-7886584D01*
X6916665Y-7886584D02*
X6907141Y-7877060D01*
X6907141Y-7877060D02*
X6916665Y-7867536D01*
X6916665Y-7867536D02*
X6916665Y-7886584D01*
X7049998Y-7686584D02*
X7069046Y-7686584D01*
X7069046Y-7686584D02*
X7088094Y-7696108D01*
X7088094Y-7696108D02*
X7097617Y-7705631D01*
X7097617Y-7705631D02*
X7107141Y-7724679D01*
X7107141Y-7724679D02*
X7116665Y-7762774D01*
X7116665Y-7762774D02*
X7116665Y-7810393D01*
X7116665Y-7810393D02*
X7107141Y-7848488D01*
X7107141Y-7848488D02*
X7097617Y-7867536D01*
X7097617Y-7867536D02*
X7088094Y-7877060D01*
X7088094Y-7877060D02*
X7069046Y-7886584D01*
X7069046Y-7886584D02*
X7049998Y-7886584D01*
X7049998Y-7886584D02*
X7030951Y-7877060D01*
X7030951Y-7877060D02*
X7021427Y-7867536D01*
X7021427Y-7867536D02*
X7011903Y-7848488D01*
X7011903Y-7848488D02*
X7002379Y-7810393D01*
X7002379Y-7810393D02*
X7002379Y-7762774D01*
X7002379Y-7762774D02*
X7011903Y-7724679D01*
X7011903Y-7724679D02*
X7021427Y-7705631D01*
X7021427Y-7705631D02*
X7030951Y-7696108D01*
X7030951Y-7696108D02*
X7049998Y-7686584D01*
X7240475Y-7686584D02*
X7259522Y-7686584D01*
X7259522Y-7686584D02*
X7278570Y-7696108D01*
X7278570Y-7696108D02*
X7288094Y-7705631D01*
X7288094Y-7705631D02*
X7297617Y-7724679D01*
X7297617Y-7724679D02*
X7307141Y-7762774D01*
X7307141Y-7762774D02*
X7307141Y-7810393D01*
X7307141Y-7810393D02*
X7297617Y-7848488D01*
X7297617Y-7848488D02*
X7288094Y-7867536D01*
X7288094Y-7867536D02*
X7278570Y-7877060D01*
X7278570Y-7877060D02*
X7259522Y-7886584D01*
X7259522Y-7886584D02*
X7240475Y-7886584D01*
X7240475Y-7886584D02*
X7221427Y-7877060D01*
X7221427Y-7877060D02*
X7211903Y-7867536D01*
X7211903Y-7867536D02*
X7202379Y-7848488D01*
X7202379Y-7848488D02*
X7192856Y-7810393D01*
X7192856Y-7810393D02*
X7192856Y-7762774D01*
X7192856Y-7762774D02*
X7202379Y-7724679D01*
X7202379Y-7724679D02*
X7211903Y-7705631D01*
X7211903Y-7705631D02*
X7221427Y-7696108D01*
X7221427Y-7696108D02*
X7240475Y-7686584D01*
X7373808Y-7686584D02*
X7507141Y-7686584D01*
X7507141Y-7686584D02*
X7421427Y-7886584D01*
X7592856Y-7886584D02*
X7630951Y-7886584D01*
X7630951Y-7886584D02*
X7649998Y-7877060D01*
X7649998Y-7877060D02*
X7659522Y-7867536D01*
X7659522Y-7867536D02*
X7678570Y-7838965D01*
X7678570Y-7838965D02*
X7688094Y-7800869D01*
X7688094Y-7800869D02*
X7688094Y-7724679D01*
X7688094Y-7724679D02*
X7678570Y-7705631D01*
X7678570Y-7705631D02*
X7669046Y-7696108D01*
X7669046Y-7696108D02*
X7649998Y-7686584D01*
X7649998Y-7686584D02*
X7611903Y-7686584D01*
X7611903Y-7686584D02*
X7592856Y-7696108D01*
X7592856Y-7696108D02*
X7583332Y-7705631D01*
X7583332Y-7705631D02*
X7573808Y-7724679D01*
X7573808Y-7724679D02*
X7573808Y-7772298D01*
X7573808Y-7772298D02*
X7583332Y-7791346D01*
X7583332Y-7791346D02*
X7592856Y-7800869D01*
X7592856Y-7800869D02*
X7611903Y-7810393D01*
X7611903Y-7810393D02*
X7649998Y-7810393D01*
X7649998Y-7810393D02*
X7669046Y-7800869D01*
X7669046Y-7800869D02*
X7678570Y-7791346D01*
X7678570Y-7791346D02*
X7688094Y-7772298D01*
X7764284Y-7686584D02*
X7764284Y-7724679D01*
X7840475Y-7686584D02*
X7840475Y-7724679D01*
X8135713Y-7962774D02*
X8126189Y-7953250D01*
X8126189Y-7953250D02*
X8107141Y-7924679D01*
X8107141Y-7924679D02*
X8097618Y-7905631D01*
X8097618Y-7905631D02*
X8088094Y-7877060D01*
X8088094Y-7877060D02*
X8078570Y-7829441D01*
X8078570Y-7829441D02*
X8078570Y-7791346D01*
X8078570Y-7791346D02*
X8088094Y-7743727D01*
X8088094Y-7743727D02*
X8097618Y-7715155D01*
X8097618Y-7715155D02*
X8107141Y-7696108D01*
X8107141Y-7696108D02*
X8126189Y-7667536D01*
X8126189Y-7667536D02*
X8135713Y-7658012D01*
X8192856Y-7686584D02*
X8316665Y-7686584D01*
X8316665Y-7686584D02*
X8249998Y-7762774D01*
X8249998Y-7762774D02*
X8278570Y-7762774D01*
X8278570Y-7762774D02*
X8297618Y-7772298D01*
X8297618Y-7772298D02*
X8307141Y-7781822D01*
X8307141Y-7781822D02*
X8316665Y-7800869D01*
X8316665Y-7800869D02*
X8316665Y-7848488D01*
X8316665Y-7848488D02*
X8307141Y-7867536D01*
X8307141Y-7867536D02*
X8297618Y-7877060D01*
X8297618Y-7877060D02*
X8278570Y-7886584D01*
X8278570Y-7886584D02*
X8221427Y-7886584D01*
X8221427Y-7886584D02*
X8202379Y-7877060D01*
X8202379Y-7877060D02*
X8192856Y-7867536D01*
X8554761Y-7886584D02*
X8554761Y-7686584D01*
X8640475Y-7886584D02*
X8640475Y-7781822D01*
X8640475Y-7781822D02*
X8630951Y-7762774D01*
X8630951Y-7762774D02*
X8611903Y-7753250D01*
X8611903Y-7753250D02*
X8583332Y-7753250D01*
X8583332Y-7753250D02*
X8564284Y-7762774D01*
X8564284Y-7762774D02*
X8554761Y-7772298D01*
X8764284Y-7886584D02*
X8745237Y-7877060D01*
X8745237Y-7877060D02*
X8735713Y-7867536D01*
X8735713Y-7867536D02*
X8726189Y-7848488D01*
X8726189Y-7848488D02*
X8726189Y-7791346D01*
X8726189Y-7791346D02*
X8735713Y-7772298D01*
X8735713Y-7772298D02*
X8745237Y-7762774D01*
X8745237Y-7762774D02*
X8764284Y-7753250D01*
X8764284Y-7753250D02*
X8792856Y-7753250D01*
X8792856Y-7753250D02*
X8811903Y-7762774D01*
X8811903Y-7762774D02*
X8821427Y-7772298D01*
X8821427Y-7772298D02*
X8830951Y-7791346D01*
X8830951Y-7791346D02*
X8830951Y-7848488D01*
X8830951Y-7848488D02*
X8821427Y-7867536D01*
X8821427Y-7867536D02*
X8811903Y-7877060D01*
X8811903Y-7877060D02*
X8792856Y-7886584D01*
X8792856Y-7886584D02*
X8764284Y-7886584D01*
X8945237Y-7886584D02*
X8926189Y-7877060D01*
X8926189Y-7877060D02*
X8916665Y-7858012D01*
X8916665Y-7858012D02*
X8916665Y-7686584D01*
X9097618Y-7877060D02*
X9078570Y-7886584D01*
X9078570Y-7886584D02*
X9040475Y-7886584D01*
X9040475Y-7886584D02*
X9021427Y-7877060D01*
X9021427Y-7877060D02*
X9011903Y-7858012D01*
X9011903Y-7858012D02*
X9011903Y-7781822D01*
X9011903Y-7781822D02*
X9021427Y-7762774D01*
X9021427Y-7762774D02*
X9040475Y-7753250D01*
X9040475Y-7753250D02*
X9078570Y-7753250D01*
X9078570Y-7753250D02*
X9097618Y-7762774D01*
X9097618Y-7762774D02*
X9107142Y-7781822D01*
X9107142Y-7781822D02*
X9107142Y-7800869D01*
X9107142Y-7800869D02*
X9011903Y-7819917D01*
X9183332Y-7877060D02*
X9202380Y-7886584D01*
X9202380Y-7886584D02*
X9240475Y-7886584D01*
X9240475Y-7886584D02*
X9259523Y-7877060D01*
X9259523Y-7877060D02*
X9269046Y-7858012D01*
X9269046Y-7858012D02*
X9269046Y-7848488D01*
X9269046Y-7848488D02*
X9259523Y-7829441D01*
X9259523Y-7829441D02*
X9240475Y-7819917D01*
X9240475Y-7819917D02*
X9211903Y-7819917D01*
X9211903Y-7819917D02*
X9192856Y-7810393D01*
X9192856Y-7810393D02*
X9183332Y-7791346D01*
X9183332Y-7791346D02*
X9183332Y-7781822D01*
X9183332Y-7781822D02*
X9192856Y-7762774D01*
X9192856Y-7762774D02*
X9211903Y-7753250D01*
X9211903Y-7753250D02*
X9240475Y-7753250D01*
X9240475Y-7753250D02*
X9259523Y-7762774D01*
X9335713Y-7962774D02*
X9345237Y-7953250D01*
X9345237Y-7953250D02*
X9364284Y-7924679D01*
X9364284Y-7924679D02*
X9373808Y-7905631D01*
X9373808Y-7905631D02*
X9383332Y-7877060D01*
X9383332Y-7877060D02*
X9392856Y-7829441D01*
X9392856Y-7829441D02*
X9392856Y-7791346D01*
X9392856Y-7791346D02*
X9383332Y-7743727D01*
X9383332Y-7743727D02*
X9373808Y-7715155D01*
X9373808Y-7715155D02*
X9364284Y-7696108D01*
X9364284Y-7696108D02*
X9345237Y-7667536D01*
X9345237Y-7667536D02*
X9335713Y-7658012D01*
D10*
X4560650Y-8059100D02*
G75*
G03*
X4560650Y-8059100I-40000J0D01*
G01*
D11*
X4859522Y-7950584D02*
X4878570Y-7950584D01*
X4878570Y-7950584D02*
X4897617Y-7960108D01*
X4897617Y-7960108D02*
X4907141Y-7969631D01*
X4907141Y-7969631D02*
X4916665Y-7988679D01*
X4916665Y-7988679D02*
X4926189Y-8026774D01*
X4926189Y-8026774D02*
X4926189Y-8074393D01*
X4926189Y-8074393D02*
X4916665Y-8112488D01*
X4916665Y-8112488D02*
X4907141Y-8131536D01*
X4907141Y-8131536D02*
X4897617Y-8141060D01*
X4897617Y-8141060D02*
X4878570Y-8150584D01*
X4878570Y-8150584D02*
X4859522Y-8150584D01*
X4859522Y-8150584D02*
X4840474Y-8141060D01*
X4840474Y-8141060D02*
X4830951Y-8131536D01*
X4830951Y-8131536D02*
X4821427Y-8112488D01*
X4821427Y-8112488D02*
X4811903Y-8074393D01*
X4811903Y-8074393D02*
X4811903Y-8026774D01*
X4811903Y-8026774D02*
X4821427Y-7988679D01*
X4821427Y-7988679D02*
X4830951Y-7969631D01*
X4830951Y-7969631D02*
X4840474Y-7960108D01*
X4840474Y-7960108D02*
X4859522Y-7950584D01*
X5011903Y-8131536D02*
X5021427Y-8141060D01*
X5021427Y-8141060D02*
X5011903Y-8150584D01*
X5011903Y-8150584D02*
X5002379Y-8141060D01*
X5002379Y-8141060D02*
X5011903Y-8131536D01*
X5011903Y-8131536D02*
X5011903Y-8150584D01*
X5135713Y-8036298D02*
X5116665Y-8026774D01*
X5116665Y-8026774D02*
X5107141Y-8017250D01*
X5107141Y-8017250D02*
X5097617Y-7998203D01*
X5097617Y-7998203D02*
X5097617Y-7988679D01*
X5097617Y-7988679D02*
X5107141Y-7969631D01*
X5107141Y-7969631D02*
X5116665Y-7960108D01*
X5116665Y-7960108D02*
X5135713Y-7950584D01*
X5135713Y-7950584D02*
X5173808Y-7950584D01*
X5173808Y-7950584D02*
X5192855Y-7960108D01*
X5192855Y-7960108D02*
X5202379Y-7969631D01*
X5202379Y-7969631D02*
X5211903Y-7988679D01*
X5211903Y-7988679D02*
X5211903Y-7998203D01*
X5211903Y-7998203D02*
X5202379Y-8017250D01*
X5202379Y-8017250D02*
X5192855Y-8026774D01*
X5192855Y-8026774D02*
X5173808Y-8036298D01*
X5173808Y-8036298D02*
X5135713Y-8036298D01*
X5135713Y-8036298D02*
X5116665Y-8045822D01*
X5116665Y-8045822D02*
X5107141Y-8055346D01*
X5107141Y-8055346D02*
X5097617Y-8074393D01*
X5097617Y-8074393D02*
X5097617Y-8112488D01*
X5097617Y-8112488D02*
X5107141Y-8131536D01*
X5107141Y-8131536D02*
X5116665Y-8141060D01*
X5116665Y-8141060D02*
X5135713Y-8150584D01*
X5135713Y-8150584D02*
X5173808Y-8150584D01*
X5173808Y-8150584D02*
X5192855Y-8141060D01*
X5192855Y-8141060D02*
X5202379Y-8131536D01*
X5202379Y-8131536D02*
X5211903Y-8112488D01*
X5211903Y-8112488D02*
X5211903Y-8074393D01*
X5211903Y-8074393D02*
X5202379Y-8055346D01*
X5202379Y-8055346D02*
X5192855Y-8045822D01*
X5192855Y-8045822D02*
X5173808Y-8036298D01*
X5335713Y-7950584D02*
X5354760Y-7950584D01*
X5354760Y-7950584D02*
X5373808Y-7960108D01*
X5373808Y-7960108D02*
X5383332Y-7969631D01*
X5383332Y-7969631D02*
X5392855Y-7988679D01*
X5392855Y-7988679D02*
X5402379Y-8026774D01*
X5402379Y-8026774D02*
X5402379Y-8074393D01*
X5402379Y-8074393D02*
X5392855Y-8112488D01*
X5392855Y-8112488D02*
X5383332Y-8131536D01*
X5383332Y-8131536D02*
X5373808Y-8141060D01*
X5373808Y-8141060D02*
X5354760Y-8150584D01*
X5354760Y-8150584D02*
X5335713Y-8150584D01*
X5335713Y-8150584D02*
X5316665Y-8141060D01*
X5316665Y-8141060D02*
X5307141Y-8131536D01*
X5307141Y-8131536D02*
X5297617Y-8112488D01*
X5297617Y-8112488D02*
X5288094Y-8074393D01*
X5288094Y-8074393D02*
X5288094Y-8026774D01*
X5288094Y-8026774D02*
X5297617Y-7988679D01*
X5297617Y-7988679D02*
X5307141Y-7969631D01*
X5307141Y-7969631D02*
X5316665Y-7960108D01*
X5316665Y-7960108D02*
X5335713Y-7950584D01*
X5526189Y-7950584D02*
X5545236Y-7950584D01*
X5545236Y-7950584D02*
X5564284Y-7960108D01*
X5564284Y-7960108D02*
X5573808Y-7969631D01*
X5573808Y-7969631D02*
X5583332Y-7988679D01*
X5583332Y-7988679D02*
X5592855Y-8026774D01*
X5592855Y-8026774D02*
X5592855Y-8074393D01*
X5592855Y-8074393D02*
X5583332Y-8112488D01*
X5583332Y-8112488D02*
X5573808Y-8131536D01*
X5573808Y-8131536D02*
X5564284Y-8141060D01*
X5564284Y-8141060D02*
X5545236Y-8150584D01*
X5545236Y-8150584D02*
X5526189Y-8150584D01*
X5526189Y-8150584D02*
X5507141Y-8141060D01*
X5507141Y-8141060D02*
X5497617Y-8131536D01*
X5497617Y-8131536D02*
X5488094Y-8112488D01*
X5488094Y-8112488D02*
X5478570Y-8074393D01*
X5478570Y-8074393D02*
X5478570Y-8026774D01*
X5478570Y-8026774D02*
X5488094Y-7988679D01*
X5488094Y-7988679D02*
X5497617Y-7969631D01*
X5497617Y-7969631D02*
X5507141Y-7960108D01*
X5507141Y-7960108D02*
X5526189Y-7950584D01*
X5678570Y-8150584D02*
X5678570Y-8017250D01*
X5678570Y-8036298D02*
X5688093Y-8026774D01*
X5688093Y-8026774D02*
X5707141Y-8017250D01*
X5707141Y-8017250D02*
X5735713Y-8017250D01*
X5735713Y-8017250D02*
X5754760Y-8026774D01*
X5754760Y-8026774D02*
X5764284Y-8045822D01*
X5764284Y-8045822D02*
X5764284Y-8150584D01*
X5764284Y-8045822D02*
X5773808Y-8026774D01*
X5773808Y-8026774D02*
X5792855Y-8017250D01*
X5792855Y-8017250D02*
X5821427Y-8017250D01*
X5821427Y-8017250D02*
X5840474Y-8026774D01*
X5840474Y-8026774D02*
X5849998Y-8045822D01*
X5849998Y-8045822D02*
X5849998Y-8150584D01*
X5945236Y-8150584D02*
X5945236Y-8017250D01*
X5945236Y-8036298D02*
X5954760Y-8026774D01*
X5954760Y-8026774D02*
X5973808Y-8017250D01*
X5973808Y-8017250D02*
X6002379Y-8017250D01*
X6002379Y-8017250D02*
X6021427Y-8026774D01*
X6021427Y-8026774D02*
X6030951Y-8045822D01*
X6030951Y-8045822D02*
X6030951Y-8150584D01*
X6030951Y-8045822D02*
X6040474Y-8026774D01*
X6040474Y-8026774D02*
X6059522Y-8017250D01*
X6059522Y-8017250D02*
X6088093Y-8017250D01*
X6088093Y-8017250D02*
X6107141Y-8026774D01*
X6107141Y-8026774D02*
X6116665Y-8045822D01*
X6116665Y-8045822D02*
X6116665Y-8150584D01*
X6507141Y-7941060D02*
X6335713Y-8198203D01*
X6764284Y-7950584D02*
X6783332Y-7950584D01*
X6783332Y-7950584D02*
X6802379Y-7960108D01*
X6802379Y-7960108D02*
X6811903Y-7969631D01*
X6811903Y-7969631D02*
X6821427Y-7988679D01*
X6821427Y-7988679D02*
X6830951Y-8026774D01*
X6830951Y-8026774D02*
X6830951Y-8074393D01*
X6830951Y-8074393D02*
X6821427Y-8112488D01*
X6821427Y-8112488D02*
X6811903Y-8131536D01*
X6811903Y-8131536D02*
X6802379Y-8141060D01*
X6802379Y-8141060D02*
X6783332Y-8150584D01*
X6783332Y-8150584D02*
X6764284Y-8150584D01*
X6764284Y-8150584D02*
X6745236Y-8141060D01*
X6745236Y-8141060D02*
X6735713Y-8131536D01*
X6735713Y-8131536D02*
X6726189Y-8112488D01*
X6726189Y-8112488D02*
X6716665Y-8074393D01*
X6716665Y-8074393D02*
X6716665Y-8026774D01*
X6716665Y-8026774D02*
X6726189Y-7988679D01*
X6726189Y-7988679D02*
X6735713Y-7969631D01*
X6735713Y-7969631D02*
X6745236Y-7960108D01*
X6745236Y-7960108D02*
X6764284Y-7950584D01*
X6916665Y-8131536D02*
X6926189Y-8141060D01*
X6926189Y-8141060D02*
X6916665Y-8150584D01*
X6916665Y-8150584D02*
X6907141Y-8141060D01*
X6907141Y-8141060D02*
X6916665Y-8131536D01*
X6916665Y-8131536D02*
X6916665Y-8150584D01*
X7049998Y-7950584D02*
X7069046Y-7950584D01*
X7069046Y-7950584D02*
X7088094Y-7960108D01*
X7088094Y-7960108D02*
X7097617Y-7969631D01*
X7097617Y-7969631D02*
X7107141Y-7988679D01*
X7107141Y-7988679D02*
X7116665Y-8026774D01*
X7116665Y-8026774D02*
X7116665Y-8074393D01*
X7116665Y-8074393D02*
X7107141Y-8112488D01*
X7107141Y-8112488D02*
X7097617Y-8131536D01*
X7097617Y-8131536D02*
X7088094Y-8141060D01*
X7088094Y-8141060D02*
X7069046Y-8150584D01*
X7069046Y-8150584D02*
X7049998Y-8150584D01*
X7049998Y-8150584D02*
X7030951Y-8141060D01*
X7030951Y-8141060D02*
X7021427Y-8131536D01*
X7021427Y-8131536D02*
X7011903Y-8112488D01*
X7011903Y-8112488D02*
X7002379Y-8074393D01*
X7002379Y-8074393D02*
X7002379Y-8026774D01*
X7002379Y-8026774D02*
X7011903Y-7988679D01*
X7011903Y-7988679D02*
X7021427Y-7969631D01*
X7021427Y-7969631D02*
X7030951Y-7960108D01*
X7030951Y-7960108D02*
X7049998Y-7950584D01*
X7183332Y-7950584D02*
X7307141Y-7950584D01*
X7307141Y-7950584D02*
X7240475Y-8026774D01*
X7240475Y-8026774D02*
X7269046Y-8026774D01*
X7269046Y-8026774D02*
X7288094Y-8036298D01*
X7288094Y-8036298D02*
X7297617Y-8045822D01*
X7297617Y-8045822D02*
X7307141Y-8064869D01*
X7307141Y-8064869D02*
X7307141Y-8112488D01*
X7307141Y-8112488D02*
X7297617Y-8131536D01*
X7297617Y-8131536D02*
X7288094Y-8141060D01*
X7288094Y-8141060D02*
X7269046Y-8150584D01*
X7269046Y-8150584D02*
X7211903Y-8150584D01*
X7211903Y-8150584D02*
X7192856Y-8141060D01*
X7192856Y-8141060D02*
X7183332Y-8131536D01*
X7497617Y-8150584D02*
X7383332Y-8150584D01*
X7440475Y-8150584D02*
X7440475Y-7950584D01*
X7440475Y-7950584D02*
X7421427Y-7979155D01*
X7421427Y-7979155D02*
X7402379Y-7998203D01*
X7402379Y-7998203D02*
X7383332Y-8007727D01*
X7678570Y-7950584D02*
X7583332Y-7950584D01*
X7583332Y-7950584D02*
X7573808Y-8045822D01*
X7573808Y-8045822D02*
X7583332Y-8036298D01*
X7583332Y-8036298D02*
X7602379Y-8026774D01*
X7602379Y-8026774D02*
X7649998Y-8026774D01*
X7649998Y-8026774D02*
X7669046Y-8036298D01*
X7669046Y-8036298D02*
X7678570Y-8045822D01*
X7678570Y-8045822D02*
X7688094Y-8064869D01*
X7688094Y-8064869D02*
X7688094Y-8112488D01*
X7688094Y-8112488D02*
X7678570Y-8131536D01*
X7678570Y-8131536D02*
X7669046Y-8141060D01*
X7669046Y-8141060D02*
X7649998Y-8150584D01*
X7649998Y-8150584D02*
X7602379Y-8150584D01*
X7602379Y-8150584D02*
X7583332Y-8141060D01*
X7583332Y-8141060D02*
X7573808Y-8131536D01*
X7764284Y-7950584D02*
X7764284Y-7988679D01*
X7840475Y-7950584D02*
X7840475Y-7988679D01*
X8135713Y-8226774D02*
X8126189Y-8217250D01*
X8126189Y-8217250D02*
X8107141Y-8188679D01*
X8107141Y-8188679D02*
X8097618Y-8169631D01*
X8097618Y-8169631D02*
X8088094Y-8141060D01*
X8088094Y-8141060D02*
X8078570Y-8093441D01*
X8078570Y-8093441D02*
X8078570Y-8055346D01*
X8078570Y-8055346D02*
X8088094Y-8007727D01*
X8088094Y-8007727D02*
X8097618Y-7979155D01*
X8097618Y-7979155D02*
X8107141Y-7960108D01*
X8107141Y-7960108D02*
X8126189Y-7931536D01*
X8126189Y-7931536D02*
X8135713Y-7922012D01*
X8316665Y-8150584D02*
X8202379Y-8150584D01*
X8259522Y-8150584D02*
X8259522Y-7950584D01*
X8259522Y-7950584D02*
X8240475Y-7979155D01*
X8240475Y-7979155D02*
X8221427Y-7998203D01*
X8221427Y-7998203D02*
X8202379Y-8007727D01*
X8488094Y-7950584D02*
X8449999Y-7950584D01*
X8449999Y-7950584D02*
X8430951Y-7960108D01*
X8430951Y-7960108D02*
X8421427Y-7969631D01*
X8421427Y-7969631D02*
X8402380Y-7998203D01*
X8402380Y-7998203D02*
X8392856Y-8036298D01*
X8392856Y-8036298D02*
X8392856Y-8112488D01*
X8392856Y-8112488D02*
X8402380Y-8131536D01*
X8402380Y-8131536D02*
X8411903Y-8141060D01*
X8411903Y-8141060D02*
X8430951Y-8150584D01*
X8430951Y-8150584D02*
X8469046Y-8150584D01*
X8469046Y-8150584D02*
X8488094Y-8141060D01*
X8488094Y-8141060D02*
X8497618Y-8131536D01*
X8497618Y-8131536D02*
X8507141Y-8112488D01*
X8507141Y-8112488D02*
X8507141Y-8064869D01*
X8507141Y-8064869D02*
X8497618Y-8045822D01*
X8497618Y-8045822D02*
X8488094Y-8036298D01*
X8488094Y-8036298D02*
X8469046Y-8026774D01*
X8469046Y-8026774D02*
X8430951Y-8026774D01*
X8430951Y-8026774D02*
X8411903Y-8036298D01*
X8411903Y-8036298D02*
X8402380Y-8045822D01*
X8402380Y-8045822D02*
X8392856Y-8064869D01*
X8745237Y-8150584D02*
X8745237Y-7950584D01*
X8830951Y-8150584D02*
X8830951Y-8045822D01*
X8830951Y-8045822D02*
X8821427Y-8026774D01*
X8821427Y-8026774D02*
X8802380Y-8017250D01*
X8802380Y-8017250D02*
X8773808Y-8017250D01*
X8773808Y-8017250D02*
X8754761Y-8026774D01*
X8754761Y-8026774D02*
X8745237Y-8036298D01*
X8954761Y-8150584D02*
X8935713Y-8141060D01*
X8935713Y-8141060D02*
X8926189Y-8131536D01*
X8926189Y-8131536D02*
X8916665Y-8112488D01*
X8916665Y-8112488D02*
X8916665Y-8055346D01*
X8916665Y-8055346D02*
X8926189Y-8036298D01*
X8926189Y-8036298D02*
X8935713Y-8026774D01*
X8935713Y-8026774D02*
X8954761Y-8017250D01*
X8954761Y-8017250D02*
X8983332Y-8017250D01*
X8983332Y-8017250D02*
X9002380Y-8026774D01*
X9002380Y-8026774D02*
X9011903Y-8036298D01*
X9011903Y-8036298D02*
X9021427Y-8055346D01*
X9021427Y-8055346D02*
X9021427Y-8112488D01*
X9021427Y-8112488D02*
X9011903Y-8131536D01*
X9011903Y-8131536D02*
X9002380Y-8141060D01*
X9002380Y-8141060D02*
X8983332Y-8150584D01*
X8983332Y-8150584D02*
X8954761Y-8150584D01*
X9135713Y-8150584D02*
X9116665Y-8141060D01*
X9116665Y-8141060D02*
X9107142Y-8122012D01*
X9107142Y-8122012D02*
X9107142Y-7950584D01*
X9288094Y-8141060D02*
X9269046Y-8150584D01*
X9269046Y-8150584D02*
X9230951Y-8150584D01*
X9230951Y-8150584D02*
X9211903Y-8141060D01*
X9211903Y-8141060D02*
X9202380Y-8122012D01*
X9202380Y-8122012D02*
X9202380Y-8045822D01*
X9202380Y-8045822D02*
X9211903Y-8026774D01*
X9211903Y-8026774D02*
X9230951Y-8017250D01*
X9230951Y-8017250D02*
X9269046Y-8017250D01*
X9269046Y-8017250D02*
X9288094Y-8026774D01*
X9288094Y-8026774D02*
X9297618Y-8045822D01*
X9297618Y-8045822D02*
X9297618Y-8064869D01*
X9297618Y-8064869D02*
X9202380Y-8083917D01*
X9373808Y-8141060D02*
X9392856Y-8150584D01*
X9392856Y-8150584D02*
X9430951Y-8150584D01*
X9430951Y-8150584D02*
X9449999Y-8141060D01*
X9449999Y-8141060D02*
X9459523Y-8122012D01*
X9459523Y-8122012D02*
X9459523Y-8112488D01*
X9459523Y-8112488D02*
X9449999Y-8093441D01*
X9449999Y-8093441D02*
X9430951Y-8083917D01*
X9430951Y-8083917D02*
X9402380Y-8083917D01*
X9402380Y-8083917D02*
X9383332Y-8074393D01*
X9383332Y-8074393D02*
X9373808Y-8055346D01*
X9373808Y-8055346D02*
X9373808Y-8045822D01*
X9373808Y-8045822D02*
X9383332Y-8026774D01*
X9383332Y-8026774D02*
X9402380Y-8017250D01*
X9402380Y-8017250D02*
X9430951Y-8017250D01*
X9430951Y-8017250D02*
X9449999Y-8026774D01*
X9526189Y-8226774D02*
X9535713Y-8217250D01*
X9535713Y-8217250D02*
X9554761Y-8188679D01*
X9554761Y-8188679D02*
X9564284Y-8169631D01*
X9564284Y-8169631D02*
X9573808Y-8141060D01*
X9573808Y-8141060D02*
X9583332Y-8093441D01*
X9583332Y-8093441D02*
X9583332Y-8055346D01*
X9583332Y-8055346D02*
X9573808Y-8007727D01*
X9573808Y-8007727D02*
X9564284Y-7979155D01*
X9564284Y-7979155D02*
X9554761Y-7960108D01*
X9554761Y-7960108D02*
X9535713Y-7931536D01*
X9535713Y-7931536D02*
X9526189Y-7922012D01*
D10*
X4510650Y-8273100D02*
X4510650Y-8373100D01*
X4460650Y-8323100D02*
X4560650Y-8323100D01*
D11*
X4926189Y-8414584D02*
X4811903Y-8414584D01*
X4869046Y-8414584D02*
X4869046Y-8214584D01*
X4869046Y-8214584D02*
X4849998Y-8243155D01*
X4849998Y-8243155D02*
X4830951Y-8262203D01*
X4830951Y-8262203D02*
X4811903Y-8271727D01*
X5011903Y-8395536D02*
X5021427Y-8405060D01*
X5021427Y-8405060D02*
X5011903Y-8414584D01*
X5011903Y-8414584D02*
X5002379Y-8405060D01*
X5002379Y-8405060D02*
X5011903Y-8395536D01*
X5011903Y-8395536D02*
X5011903Y-8414584D01*
X5145236Y-8214584D02*
X5164284Y-8214584D01*
X5164284Y-8214584D02*
X5183332Y-8224108D01*
X5183332Y-8224108D02*
X5192855Y-8233631D01*
X5192855Y-8233631D02*
X5202379Y-8252679D01*
X5202379Y-8252679D02*
X5211903Y-8290774D01*
X5211903Y-8290774D02*
X5211903Y-8338393D01*
X5211903Y-8338393D02*
X5202379Y-8376488D01*
X5202379Y-8376488D02*
X5192855Y-8395536D01*
X5192855Y-8395536D02*
X5183332Y-8405060D01*
X5183332Y-8405060D02*
X5164284Y-8414584D01*
X5164284Y-8414584D02*
X5145236Y-8414584D01*
X5145236Y-8414584D02*
X5126189Y-8405060D01*
X5126189Y-8405060D02*
X5116665Y-8395536D01*
X5116665Y-8395536D02*
X5107141Y-8376488D01*
X5107141Y-8376488D02*
X5097617Y-8338393D01*
X5097617Y-8338393D02*
X5097617Y-8290774D01*
X5097617Y-8290774D02*
X5107141Y-8252679D01*
X5107141Y-8252679D02*
X5116665Y-8233631D01*
X5116665Y-8233631D02*
X5126189Y-8224108D01*
X5126189Y-8224108D02*
X5145236Y-8214584D01*
X5335713Y-8214584D02*
X5354760Y-8214584D01*
X5354760Y-8214584D02*
X5373808Y-8224108D01*
X5373808Y-8224108D02*
X5383332Y-8233631D01*
X5383332Y-8233631D02*
X5392855Y-8252679D01*
X5392855Y-8252679D02*
X5402379Y-8290774D01*
X5402379Y-8290774D02*
X5402379Y-8338393D01*
X5402379Y-8338393D02*
X5392855Y-8376488D01*
X5392855Y-8376488D02*
X5383332Y-8395536D01*
X5383332Y-8395536D02*
X5373808Y-8405060D01*
X5373808Y-8405060D02*
X5354760Y-8414584D01*
X5354760Y-8414584D02*
X5335713Y-8414584D01*
X5335713Y-8414584D02*
X5316665Y-8405060D01*
X5316665Y-8405060D02*
X5307141Y-8395536D01*
X5307141Y-8395536D02*
X5297617Y-8376488D01*
X5297617Y-8376488D02*
X5288094Y-8338393D01*
X5288094Y-8338393D02*
X5288094Y-8290774D01*
X5288094Y-8290774D02*
X5297617Y-8252679D01*
X5297617Y-8252679D02*
X5307141Y-8233631D01*
X5307141Y-8233631D02*
X5316665Y-8224108D01*
X5316665Y-8224108D02*
X5335713Y-8214584D01*
X5526189Y-8214584D02*
X5545236Y-8214584D01*
X5545236Y-8214584D02*
X5564284Y-8224108D01*
X5564284Y-8224108D02*
X5573808Y-8233631D01*
X5573808Y-8233631D02*
X5583332Y-8252679D01*
X5583332Y-8252679D02*
X5592855Y-8290774D01*
X5592855Y-8290774D02*
X5592855Y-8338393D01*
X5592855Y-8338393D02*
X5583332Y-8376488D01*
X5583332Y-8376488D02*
X5573808Y-8395536D01*
X5573808Y-8395536D02*
X5564284Y-8405060D01*
X5564284Y-8405060D02*
X5545236Y-8414584D01*
X5545236Y-8414584D02*
X5526189Y-8414584D01*
X5526189Y-8414584D02*
X5507141Y-8405060D01*
X5507141Y-8405060D02*
X5497617Y-8395536D01*
X5497617Y-8395536D02*
X5488094Y-8376488D01*
X5488094Y-8376488D02*
X5478570Y-8338393D01*
X5478570Y-8338393D02*
X5478570Y-8290774D01*
X5478570Y-8290774D02*
X5488094Y-8252679D01*
X5488094Y-8252679D02*
X5497617Y-8233631D01*
X5497617Y-8233631D02*
X5507141Y-8224108D01*
X5507141Y-8224108D02*
X5526189Y-8214584D01*
X5678570Y-8414584D02*
X5678570Y-8281250D01*
X5678570Y-8300298D02*
X5688093Y-8290774D01*
X5688093Y-8290774D02*
X5707141Y-8281250D01*
X5707141Y-8281250D02*
X5735713Y-8281250D01*
X5735713Y-8281250D02*
X5754760Y-8290774D01*
X5754760Y-8290774D02*
X5764284Y-8309822D01*
X5764284Y-8309822D02*
X5764284Y-8414584D01*
X5764284Y-8309822D02*
X5773808Y-8290774D01*
X5773808Y-8290774D02*
X5792855Y-8281250D01*
X5792855Y-8281250D02*
X5821427Y-8281250D01*
X5821427Y-8281250D02*
X5840474Y-8290774D01*
X5840474Y-8290774D02*
X5849998Y-8309822D01*
X5849998Y-8309822D02*
X5849998Y-8414584D01*
X5945236Y-8414584D02*
X5945236Y-8281250D01*
X5945236Y-8300298D02*
X5954760Y-8290774D01*
X5954760Y-8290774D02*
X5973808Y-8281250D01*
X5973808Y-8281250D02*
X6002379Y-8281250D01*
X6002379Y-8281250D02*
X6021427Y-8290774D01*
X6021427Y-8290774D02*
X6030951Y-8309822D01*
X6030951Y-8309822D02*
X6030951Y-8414584D01*
X6030951Y-8309822D02*
X6040474Y-8290774D01*
X6040474Y-8290774D02*
X6059522Y-8281250D01*
X6059522Y-8281250D02*
X6088093Y-8281250D01*
X6088093Y-8281250D02*
X6107141Y-8290774D01*
X6107141Y-8290774D02*
X6116665Y-8309822D01*
X6116665Y-8309822D02*
X6116665Y-8414584D01*
X6507141Y-8205060D02*
X6335713Y-8462203D01*
X6764284Y-8214584D02*
X6783332Y-8214584D01*
X6783332Y-8214584D02*
X6802379Y-8224108D01*
X6802379Y-8224108D02*
X6811903Y-8233631D01*
X6811903Y-8233631D02*
X6821427Y-8252679D01*
X6821427Y-8252679D02*
X6830951Y-8290774D01*
X6830951Y-8290774D02*
X6830951Y-8338393D01*
X6830951Y-8338393D02*
X6821427Y-8376488D01*
X6821427Y-8376488D02*
X6811903Y-8395536D01*
X6811903Y-8395536D02*
X6802379Y-8405060D01*
X6802379Y-8405060D02*
X6783332Y-8414584D01*
X6783332Y-8414584D02*
X6764284Y-8414584D01*
X6764284Y-8414584D02*
X6745236Y-8405060D01*
X6745236Y-8405060D02*
X6735713Y-8395536D01*
X6735713Y-8395536D02*
X6726189Y-8376488D01*
X6726189Y-8376488D02*
X6716665Y-8338393D01*
X6716665Y-8338393D02*
X6716665Y-8290774D01*
X6716665Y-8290774D02*
X6726189Y-8252679D01*
X6726189Y-8252679D02*
X6735713Y-8233631D01*
X6735713Y-8233631D02*
X6745236Y-8224108D01*
X6745236Y-8224108D02*
X6764284Y-8214584D01*
X6916665Y-8395536D02*
X6926189Y-8405060D01*
X6926189Y-8405060D02*
X6916665Y-8414584D01*
X6916665Y-8414584D02*
X6907141Y-8405060D01*
X6907141Y-8405060D02*
X6916665Y-8395536D01*
X6916665Y-8395536D02*
X6916665Y-8414584D01*
X7049998Y-8214584D02*
X7069046Y-8214584D01*
X7069046Y-8214584D02*
X7088094Y-8224108D01*
X7088094Y-8224108D02*
X7097617Y-8233631D01*
X7097617Y-8233631D02*
X7107141Y-8252679D01*
X7107141Y-8252679D02*
X7116665Y-8290774D01*
X7116665Y-8290774D02*
X7116665Y-8338393D01*
X7116665Y-8338393D02*
X7107141Y-8376488D01*
X7107141Y-8376488D02*
X7097617Y-8395536D01*
X7097617Y-8395536D02*
X7088094Y-8405060D01*
X7088094Y-8405060D02*
X7069046Y-8414584D01*
X7069046Y-8414584D02*
X7049998Y-8414584D01*
X7049998Y-8414584D02*
X7030951Y-8405060D01*
X7030951Y-8405060D02*
X7021427Y-8395536D01*
X7021427Y-8395536D02*
X7011903Y-8376488D01*
X7011903Y-8376488D02*
X7002379Y-8338393D01*
X7002379Y-8338393D02*
X7002379Y-8290774D01*
X7002379Y-8290774D02*
X7011903Y-8252679D01*
X7011903Y-8252679D02*
X7021427Y-8233631D01*
X7021427Y-8233631D02*
X7030951Y-8224108D01*
X7030951Y-8224108D02*
X7049998Y-8214584D01*
X7183332Y-8214584D02*
X7307141Y-8214584D01*
X7307141Y-8214584D02*
X7240475Y-8290774D01*
X7240475Y-8290774D02*
X7269046Y-8290774D01*
X7269046Y-8290774D02*
X7288094Y-8300298D01*
X7288094Y-8300298D02*
X7297617Y-8309822D01*
X7297617Y-8309822D02*
X7307141Y-8328869D01*
X7307141Y-8328869D02*
X7307141Y-8376488D01*
X7307141Y-8376488D02*
X7297617Y-8395536D01*
X7297617Y-8395536D02*
X7288094Y-8405060D01*
X7288094Y-8405060D02*
X7269046Y-8414584D01*
X7269046Y-8414584D02*
X7211903Y-8414584D01*
X7211903Y-8414584D02*
X7192856Y-8405060D01*
X7192856Y-8405060D02*
X7183332Y-8395536D01*
X7402379Y-8414584D02*
X7440475Y-8414584D01*
X7440475Y-8414584D02*
X7459522Y-8405060D01*
X7459522Y-8405060D02*
X7469046Y-8395536D01*
X7469046Y-8395536D02*
X7488094Y-8366965D01*
X7488094Y-8366965D02*
X7497617Y-8328869D01*
X7497617Y-8328869D02*
X7497617Y-8252679D01*
X7497617Y-8252679D02*
X7488094Y-8233631D01*
X7488094Y-8233631D02*
X7478570Y-8224108D01*
X7478570Y-8224108D02*
X7459522Y-8214584D01*
X7459522Y-8214584D02*
X7421427Y-8214584D01*
X7421427Y-8214584D02*
X7402379Y-8224108D01*
X7402379Y-8224108D02*
X7392856Y-8233631D01*
X7392856Y-8233631D02*
X7383332Y-8252679D01*
X7383332Y-8252679D02*
X7383332Y-8300298D01*
X7383332Y-8300298D02*
X7392856Y-8319346D01*
X7392856Y-8319346D02*
X7402379Y-8328869D01*
X7402379Y-8328869D02*
X7421427Y-8338393D01*
X7421427Y-8338393D02*
X7459522Y-8338393D01*
X7459522Y-8338393D02*
X7478570Y-8328869D01*
X7478570Y-8328869D02*
X7488094Y-8319346D01*
X7488094Y-8319346D02*
X7497617Y-8300298D01*
X7669046Y-8281250D02*
X7669046Y-8414584D01*
X7621427Y-8205060D02*
X7573808Y-8347917D01*
X7573808Y-8347917D02*
X7697617Y-8347917D01*
X7764284Y-8214584D02*
X7764284Y-8252679D01*
X7840475Y-8214584D02*
X7840475Y-8252679D01*
X8135713Y-8490774D02*
X8126189Y-8481250D01*
X8126189Y-8481250D02*
X8107141Y-8452679D01*
X8107141Y-8452679D02*
X8097618Y-8433631D01*
X8097618Y-8433631D02*
X8088094Y-8405060D01*
X8088094Y-8405060D02*
X8078570Y-8357441D01*
X8078570Y-8357441D02*
X8078570Y-8319346D01*
X8078570Y-8319346D02*
X8088094Y-8271727D01*
X8088094Y-8271727D02*
X8097618Y-8243155D01*
X8097618Y-8243155D02*
X8107141Y-8224108D01*
X8107141Y-8224108D02*
X8126189Y-8195536D01*
X8126189Y-8195536D02*
X8135713Y-8186012D01*
X8316665Y-8414584D02*
X8202379Y-8414584D01*
X8259522Y-8414584D02*
X8259522Y-8214584D01*
X8259522Y-8214584D02*
X8240475Y-8243155D01*
X8240475Y-8243155D02*
X8221427Y-8262203D01*
X8221427Y-8262203D02*
X8202379Y-8271727D01*
X8488094Y-8281250D02*
X8488094Y-8414584D01*
X8440475Y-8205060D02*
X8392856Y-8347917D01*
X8392856Y-8347917D02*
X8516665Y-8347917D01*
X8745237Y-8414584D02*
X8745237Y-8214584D01*
X8830951Y-8414584D02*
X8830951Y-8309822D01*
X8830951Y-8309822D02*
X8821427Y-8290774D01*
X8821427Y-8290774D02*
X8802380Y-8281250D01*
X8802380Y-8281250D02*
X8773808Y-8281250D01*
X8773808Y-8281250D02*
X8754761Y-8290774D01*
X8754761Y-8290774D02*
X8745237Y-8300298D01*
X8954761Y-8414584D02*
X8935713Y-8405060D01*
X8935713Y-8405060D02*
X8926189Y-8395536D01*
X8926189Y-8395536D02*
X8916665Y-8376488D01*
X8916665Y-8376488D02*
X8916665Y-8319346D01*
X8916665Y-8319346D02*
X8926189Y-8300298D01*
X8926189Y-8300298D02*
X8935713Y-8290774D01*
X8935713Y-8290774D02*
X8954761Y-8281250D01*
X8954761Y-8281250D02*
X8983332Y-8281250D01*
X8983332Y-8281250D02*
X9002380Y-8290774D01*
X9002380Y-8290774D02*
X9011903Y-8300298D01*
X9011903Y-8300298D02*
X9021427Y-8319346D01*
X9021427Y-8319346D02*
X9021427Y-8376488D01*
X9021427Y-8376488D02*
X9011903Y-8395536D01*
X9011903Y-8395536D02*
X9002380Y-8405060D01*
X9002380Y-8405060D02*
X8983332Y-8414584D01*
X8983332Y-8414584D02*
X8954761Y-8414584D01*
X9135713Y-8414584D02*
X9116665Y-8405060D01*
X9116665Y-8405060D02*
X9107142Y-8386012D01*
X9107142Y-8386012D02*
X9107142Y-8214584D01*
X9288094Y-8405060D02*
X9269046Y-8414584D01*
X9269046Y-8414584D02*
X9230951Y-8414584D01*
X9230951Y-8414584D02*
X9211903Y-8405060D01*
X9211903Y-8405060D02*
X9202380Y-8386012D01*
X9202380Y-8386012D02*
X9202380Y-8309822D01*
X9202380Y-8309822D02*
X9211903Y-8290774D01*
X9211903Y-8290774D02*
X9230951Y-8281250D01*
X9230951Y-8281250D02*
X9269046Y-8281250D01*
X9269046Y-8281250D02*
X9288094Y-8290774D01*
X9288094Y-8290774D02*
X9297618Y-8309822D01*
X9297618Y-8309822D02*
X9297618Y-8328869D01*
X9297618Y-8328869D02*
X9202380Y-8347917D01*
X9373808Y-8405060D02*
X9392856Y-8414584D01*
X9392856Y-8414584D02*
X9430951Y-8414584D01*
X9430951Y-8414584D02*
X9449999Y-8405060D01*
X9449999Y-8405060D02*
X9459523Y-8386012D01*
X9459523Y-8386012D02*
X9459523Y-8376488D01*
X9459523Y-8376488D02*
X9449999Y-8357441D01*
X9449999Y-8357441D02*
X9430951Y-8347917D01*
X9430951Y-8347917D02*
X9402380Y-8347917D01*
X9402380Y-8347917D02*
X9383332Y-8338393D01*
X9383332Y-8338393D02*
X9373808Y-8319346D01*
X9373808Y-8319346D02*
X9373808Y-8309822D01*
X9373808Y-8309822D02*
X9383332Y-8290774D01*
X9383332Y-8290774D02*
X9402380Y-8281250D01*
X9402380Y-8281250D02*
X9430951Y-8281250D01*
X9430951Y-8281250D02*
X9449999Y-8290774D01*
X9526189Y-8490774D02*
X9535713Y-8481250D01*
X9535713Y-8481250D02*
X9554761Y-8452679D01*
X9554761Y-8452679D02*
X9564284Y-8433631D01*
X9564284Y-8433631D02*
X9573808Y-8405060D01*
X9573808Y-8405060D02*
X9583332Y-8357441D01*
X9583332Y-8357441D02*
X9583332Y-8319346D01*
X9583332Y-8319346D02*
X9573808Y-8271727D01*
X9573808Y-8271727D02*
X9564284Y-8243155D01*
X9564284Y-8243155D02*
X9554761Y-8224108D01*
X9554761Y-8224108D02*
X9535713Y-8195536D01*
X9535713Y-8195536D02*
X9526189Y-8186012D01*
M02*
