%TF.GenerationSoftware,KiCad,Pcbnew,7.0.9*%
%TF.CreationDate,2024-02-01T18:41:03+01:00*%
%TF.ProjectId,PC-Power-Control,50432d50-6f77-4657-922d-436f6e74726f,rev?*%
%TF.SameCoordinates,Original*%
%TF.FileFunction,Soldermask,Top*%
%TF.FilePolarity,Negative*%
%FSLAX46Y46*%
G04 Gerber Fmt 4.6, Leading zero omitted, Abs format (unit mm)*
G04 Created by KiCad (PCBNEW 7.0.9) date 2024-02-01 18:41:03*
%MOMM*%
%LPD*%
G01*
G04 APERTURE LIST*
G04 Aperture macros list*
%AMRoundRect*
0 Rectangle with rounded corners*
0 $1 Rounding radius*
0 $2 $3 $4 $5 $6 $7 $8 $9 X,Y pos of 4 corners*
0 Add a 4 corners polygon primitive as box body*
4,1,4,$2,$3,$4,$5,$6,$7,$8,$9,$2,$3,0*
0 Add four circle primitives for the rounded corners*
1,1,$1+$1,$2,$3*
1,1,$1+$1,$4,$5*
1,1,$1+$1,$6,$7*
1,1,$1+$1,$8,$9*
0 Add four rect primitives between the rounded corners*
20,1,$1+$1,$2,$3,$4,$5,0*
20,1,$1+$1,$4,$5,$6,$7,0*
20,1,$1+$1,$6,$7,$8,$9,0*
20,1,$1+$1,$8,$9,$2,$3,0*%
G04 Aperture macros list end*
%ADD10RoundRect,0.250000X0.450000X-0.350000X0.450000X0.350000X-0.450000X0.350000X-0.450000X-0.350000X0*%
%ADD11O,2.454000X1.804000*%
%ADD12R,1.700000X1.700000*%
%ADD13O,1.700000X1.700000*%
%ADD14R,3.270000X1.960000*%
%ADD15RoundRect,0.250000X-0.450000X0.350000X-0.450000X-0.350000X0.450000X-0.350000X0.450000X0.350000X0*%
%ADD16RoundRect,0.250000X-0.600000X-0.750000X0.600000X-0.750000X0.600000X0.750000X-0.600000X0.750000X0*%
%ADD17O,1.700000X2.000000*%
G04 APERTURE END LIST*
D10*
%TO.C,RESET-RESISTOR1*%
X77089000Y-57277000D03*
X77089000Y-55277000D03*
%TD*%
D11*
%TO.C,RESET-SWITCH1*%
X72836000Y-60579000D03*
X72836000Y-63119000D03*
X81336000Y-63119000D03*
X81336000Y-60579000D03*
%TD*%
D12*
%TO.C,J1*%
X85852000Y-56896000D03*
D13*
X88392000Y-56896000D03*
X85852000Y-59436000D03*
X88392000Y-59436000D03*
X85852000Y-61976000D03*
X88392000Y-61976000D03*
X85852000Y-64516000D03*
X88392000Y-64516000D03*
X85852000Y-67056000D03*
X88392000Y-67056000D03*
X85852000Y-69596000D03*
X88392000Y-69596000D03*
%TD*%
D14*
%TO.C,ESP32-C3_SuperMini1*%
X47864000Y-49530000D03*
X47864000Y-52070000D03*
X47864000Y-54610000D03*
X47864000Y-57150000D03*
X47864000Y-59690000D03*
X47864000Y-62230000D03*
X47864000Y-64770000D03*
X47864000Y-67310000D03*
X64404000Y-49530000D03*
X64404000Y-52070000D03*
X64404000Y-54610000D03*
X64404000Y-57150000D03*
X64404000Y-59690000D03*
X64404000Y-62230000D03*
X64404000Y-64770000D03*
X64404000Y-67310000D03*
%TD*%
D15*
%TO.C,LED-RESISTOR1*%
X80899000Y-55277000D03*
X80899000Y-57277000D03*
%TD*%
%TO.C,POWER-RESISTOR1*%
X73279000Y-55277000D03*
X73279000Y-57277000D03*
%TD*%
D16*
%TO.C,POWER1*%
X86908000Y-50800000D03*
D17*
X89408000Y-50800000D03*
%TD*%
D11*
%TO.C,POWER-SWITCH1*%
X72836000Y-49530000D03*
X72836000Y-52070000D03*
X81336000Y-52070000D03*
X81336000Y-49530000D03*
%TD*%
%TO.C,LED-SWITCH1*%
X81339000Y-69723000D03*
X81339000Y-67183000D03*
X72839000Y-67183000D03*
X72839000Y-69723000D03*
%TD*%
M02*
